<svg xmlns="http://www.w3.org/2000/svg" id="etusofnMH4z1" shape-rendering="geometricPrecision"
     text-rendering="geometricPrecision" viewBox="0 0 1050 1050">
    <defs/>
    <g id="etusofnMH4z2" stroke="#000" stroke-linecap="round" stroke-linejoin="round">
        <path id="etusofnMH4z3" fill="#000" stroke-width="3"
              d="M237.25 511.06c6.55 1.22 24.56 4.39 29.62 5.02 5.11.62 21.19 1.65 26.28.92 3.61-.54 20.78-3.68 26.51-5.4 3.45-1.06 41.88-15.45 56.62-20.93 4.66-1.64 20.24-5.83 27.44-7.72 10.83-2.64 22.8-5.08 30.29-6 8.47-.96 20.94-1.53 30.27-1.4 5.8.12 22.63 1.73 28.05 2.49 7.62 1.19 22.64 3.96 29.72 5.33 8.9 1.62 23.18 2.42 25.5 1.2 2.23-1.23 8.66-7.69 10.47-9.78 2.89-3.37 7.38-10.2 9.57-14.34 1.76-3.36 5.83-12.42 5.91-12.95.16-1.23-1.02-3.07-2-3-1.19.14-36.19 18.09-43.57 21.82-4.18 2.05-9.18 4.61-10.43 4.18-1.12-.42-2.98-3.61-3-5 .06-1.71 5.42-6.76 9.25-9.81 13.22-10.32 36.44-27.86 36.62-28.06.94-1.12 1.19-3.92.75-6.01-.87-3.86-2.92-12.18-3.26-14.42-.2-1.45-.51-8.95-.26-10.8.46-3.16 3.58-10.25 4.95-12.64 3.32-5.69 15.65-19.71 21.46-25.1 3.34-3.05 8.26-6.1 12.33-7.47 3.85-1.23 17.34-2.87 23.13-2.6 3.75.19 10.35.79 13.88 1.33 3.94.63 9.64 2.38 14.53 4.45 5.36 2.35 7.96 4.06 10.3 7.31 5.25 7.45 10.41 17.86 11.39 20.51 1.85 5.11 3.23 8.55 2.93 9.31-.1.26-2.07 3.28-2 4 .2 1.71 7.11 6.39 10.04 7.81 5.68 2.7 48.25 12.31 48.96 13.19.46.59.49 1.46 1 2 1.55 1.67 19.74 3.59 23.5 4.66 1.57.48 4.14 2.08 5.04 3.22 1.46 1.95 2.95 8.65 2.36 11.81-.33 1.58-1.69 5.14-2.42 6.14-1.56 2.04-7.07 4.23-9.74 4.2-3-.08-8.05-1.98-10.32-3.97-1.05-.98-2.59-3.25-2.96-4.54-.31-1.19-.64-5.68-.46-6.52.15-.7.98-2.84.31-3.28-.27-.15-9.71-2.02-11.6-2.04-2.41-.01-7.75 2.45-10.71 3.32-2.74.8-18.66 4.12-29.26 6.8-3.84 1.01-11.11 3.26-14.43 4.65-3.78 1.61-9.43 5.01-12.31 7.55-4.46 4.01-13.65 16.99-17.82 24.95-2.11 4.06-9.75 20.39-11.24 25.72-3.95 13.84-11.74 40.57-16.7 55.52-2.62 7.41-8.17 22.61-10.72 27.84-2.86 5.79-11.22 18.93-16.28 25-5.53 6.59-16.79 16.29-19.56 19.52-1.03 1.21-3.63 4.66-4.32 5.53-1.32 1.67-1.47 2.94-.36 2.92.34-.02 8.21-4.2 10.89-5.17 3.71-1.25 8.94-3.61 9.32-3.75 3.76-1.32 22.43-4.26 28.13-4.16 2.53.06 10.27 1.15 12.52 1.73 2.28.62 6.95 3.47 11.01 6.47 4.04 3 9.07 7.54 11.57 10.6 1.2 1.52 2.1 3.5 2.13 4.7-.03.94-1.06 2.1-2.02 2.33-1.48.29-17.79.22-24.5.84-13.02 1.31-45.27 6.82-59.75 10.22-17.45 4.46-35.5 10.71-36.81 10.41-.69-.18-1.85-1.74-2.46-3-.75-1.74-.8-3.99-.03-6.22.88-2.42 7.96-13 7.99-13.47 0-.62-.51-.79-1.52-.5-1.56.47-5.15 2.25-7.33 2.77-5.33 1.38-27.72 6.36-31.51 7.05-4.26.76-19.9 1.29-26.17 1.44-7.87.09-23.67-.24-31.82-.89-6.44-.61-25.9-3.37-30.05-4.31-1.93-.43-8.7-2.54-11.59-3.09-3.57-.65-11.52-1.14-14-1-1.78.11-7.38 1.2-10.7.78-5.95-.81-17.4-3.96-23.97-4.51-3.33-.27-9.83-.56-13.33.73-2.56.98-19.22 10.93-25.27 13.86-6.73 3.14-21.96 9.73-26.73 11.14-4.57 1.33-22.87 3.97-24 4-2.3.05-7.97-.82-10.45-2.08-1.62-.88-3.37-2.78-4.55-4.92-1.05-1.97-3.48-10.04-4.36-14.3-.84-4.19-.87-14.2-.86-15.31.07-2.05.89-3.74 2.22-4.39 1.26-.56 16.04 1.22 25.16 1.18 9.36-.17 22.67-1.52 29.88-3.12 6.48-1.53 23.49-5.44 26.96-6.06 2.56-.43 18.32 1.49 18.33 1.41-.03-.76-7.94-4.75-11.1-6.69-4.97-3.05-20.8-15.06-26.23-19.72-8.26-7.12-34.72-34.45-41.89-42.55-5.19-5.95-14.14-18.33-14.11-18.45.43-1.11 5.1-.94 12.65-.9 12.68-.05 24.41-1.38 24.09-2.63-.19-.53-20.05-9.66-26.32-13.64-4.1-2.62-17.93-14.5-17.06-15.08.09-.05 2.86 1.25 4.27 1.84"/>
        <path id="etusofnMH4z4" fill="none" stroke-width="75" d="M524.78 49.89h0"/>
        <path id="etusofnMH4z5" fill="none" stroke-width="75" d="M524.78 1000.82h0"/>
        <path id="etusofnMH4z6" fill="none" stroke-width="75" d="M49.89 525.22h0"/>
        <path id="etusofnMH4z7" fill="none" stroke-width="75" d="M1000.82 525.22h0"/>
        <path id="etusofnMH4z8" fill="none" stroke-width="75" d="M188.89 189.2h0"/>
        <path id="etusofnMH4z9" fill="none" stroke-width="75" d="M861.3 861.61h0"/>
        <path id="etusofnMH4z10" fill="none" stroke-width="75" d="M189.2 861.11h0"/>
        <path id="etusofnMH4z11" fill="none" stroke-width="75" d="M861.61 188.7h0"/>
        <path id="etusofnMH4z12" fill="none" stroke-width="45" d="M347.36 84.35h0"/>
        <path id="etusofnMH4z13" fill="none" stroke-width="45" d="M702.49 966.47h0"/>
        <path id="etusofnMH4z14" fill="none" stroke-width="45" d="M84.35 702.64h0"/>
        <path id="etusofnMH4z15" fill="none" stroke-width="45" d="M966.47 347.51h0"/>
        <path id="etusofnMH4z16" fill="none" stroke-width="45" d="M87.8 339.02h0"/>
        <path id="etusofnMH4z17" fill="none" stroke-width="45" d="M962.68 711.66h0"/>
        <path id="etusofnMH4z18" fill="none" stroke-width="45" d="M339.02 962.2h0"/>
        <path id="etusofnMH4z19" fill="none" stroke-width="45" d="M711.66 87.32h0"/>
        <path id="etusofnMH4z20" fill="none" stroke-width="6"
              d="M757 442.75c-3.26 8.83-7.35 16.55-12.79 25.2-4.48 6.89-14.03 17.56-20.04 22.61-5.65 4.72-18.67 13.45-24.7 16.55-6.83 3.48-21.13 8.45-28.27 9.96-7.52 1.55-19.94 1.95-29.69 1.13-8.78-.88-16.73-3.05-19.01-3.7"/>
        <path id="etusofnMH4z21" fill="none" stroke-width="6"
              d="M753.95 444.29c-3.16 5.09-11.19 17.92-17.35 25.87-2.22 2.85-16.92 19.65-19.98 22.73-5.59 5.59-17.74 15.16-24.49 19.02-6.37 3.6-20.53 9.07-27.22 10.76-7.65 1.89-21.15 2.42-30.27 1.62-8.73-.86-15.56-3.6-17.5-4.42"/>
        <path id="etusofnMH4z22" fill="#000" stroke-width="3"
              d="M2896.97 538.75c1.04.54 2.02.97 4.12 1.79 3.71 1.48 11.04 4.45 14.66 5.94 3.8 1.53 20.36 7.11 21.69 6.9.4-.1-16.2-12.92-21.8-17.93-5.59-5.03-15.17-15.43-19.51-21.52-2.2-3.12-3.87-6.5-5.35-10.22 8.12 4.89 23.54 12.88 27.72 14.79 6.91 3.13 18.76 6.94 25.93 8.16 6.93 1.15 18.07.84 24.18.49 6.28-.43 18.01-4.29 23.26-5.96 3.56-1.25 22.43-8.64 30.05-11.66 7.85-3.13 11.39-4.29 23.6-8.07 10.53-3.34 16.15-4.81 26.19-6.93 10.94-2.18 23.4-4 32.83-4.69 5.49-.35 27.5-.48 31.87-.25 8.25.46 21.57 2.73 28.09 3.91 7.48 1.57 25.39 5.32 28.39 5.81 2.81.44 7.35.02 12.74-1.1 3.69-.81 6.01-2.6 8.43-5.69 4.79-6.2 15.24-19.91 18.81-25.79 3.37-5.6 7.12-15.26 7.19-17.71.01-.3-.78-8.23-1.56-8.52-.67-.2-51.72 21.73-55.55 23.22-1.51.54-4.86 1.73-5.45 1.78-1.29.08-3.65-1.01-4-2-.35-1.18.83-4.62 2-6 1.11-1.26 45.46-31.23 46.03-31.68 1.42-1.15 2.27-3.01 2.08-4.14-1.29-6.15-2.42-23.64-1.81-28.38.34-2.45 3.24-9.43 5.03-12.16 2.93-4.45 15.61-16.61 20.28-20.22 2.41-1.85 7.93-6.21 10.39-7.42 1.55-.74 8.12-2.68 12-3 4.34-.33 21.57 1.08 26.64 2.07 3.18.63 9.12 2.73 12.34 4.36 3.43 1.75 9.79 5.54 12.65 7.63 3.05 2.29 6.37 6.55 8.01 10.53 1.48 3.7 4.44 12.05 4.88 13.43 1.26 4 1.8 9.02.85 11.99-.4 1.22-.34 2.89.1 4.33.53 1.57.28 3.04.53 3.66.03.06 7 4.53 9.42 5.69 5.79 2.76 20.57 6.65 33.14 9.3 3.4.73 12.49 2.63 12.98 2.78 2.52.76 5.16 5.08 5.46 5.23.59.3 2.29 0 3.56.38 2.4.69 9.3 1.46 10.44 1.62 3.5.51 8.06 1.8 10.41 3.45 1.05.77 3.4 3.01 3.96 3.98.93 1.7 1.79 5.48 1.58 7.42-.23 1.75-1.91 5.85-2.94 7.18-1.04 1.25-4.25 3.31-5.9 3.82-1.83.51-5.86.55-7.89.15-1.1-.24-4.45-1.81-5.25-2.4-1.13-.89-2.65-3.35-3.06-4.93-.25-1.07-.66-5.23-.59-5.97.07-.81.46-3.37-.17-3.78-1.22-.73-12.84-3-13.15-2.92-.45.13-1.28 1.24-2.51 1.49-2.62.54-19.47 4.73-27.37 6.71-9.66 2.55-21.06 5.99-25.12 7.8-2.94 1.34-8.3 4.37-12 8-3.63 3.62-16.65 21.38-19.31 25.54-3.13 4.9-10.53 18.67-13.34 25.87-3.11 8.01-14.04 47.22-16.28 54.36-1.95 6.05-8.3 21.39-11.42 28.36-3.56 7.78-12.24 21.02-17.24 27.28-4.53 5.64-15.03 14.32-20.32 18.35-6.65 5.02-16.55 10.76-25.59 15.06-8.86 4.07-16.87 6.85-27.13 8.88-2 .37-5.84 1.13-7.68 1.51-2.05.46-4.24 1.65-4.68 2.8-.35 1.02 1.18 9.8 1.41 10.8 1.88 7.81 15.85 37.94 18.29 41.37.43.6 5.14 6.93 6.29 6.82.33-.05 18.31-14.36 22.99-17.8 15.16-10.95 30.57-21.18 34.56-22.91 3.11-1.32 8.58-1.23 12.5-.19 4.2 1.17 8.02 2.78 11.11 4.91 2.79 1.95 9.34 7.3 9.57 8.81.16 1.25-1.09 3.9-2.1 5-3.75 3.81-18.83 13.25-26.18 17.06-5.79 2.93-21.71 10.14-28.45 13.12-8.08 3.36-20.7 8.3-26.84 10.3-3.8 1.23-12.98 4.18-16.45 4.64-1.65.19-4.8-.23-6.28-.94-1.5-.76-2.95-2.74-3.02-3.92-.18-6.09-2.5-15.24-5.58-26.21-1.57-5.36-7.65-21.11-8.27-22.58-2.74-6.43-14.02-23.85-15.56-25.29-1.16-1.03-6.72-.94-9.44-.89-23.16.13-40.1-.94-51.21-2.84-1.23-.18-2.74.45-3.71 1.5-4.45 5.09-18.21 18.62-21.28 21.25-3.21 2.7-9.29 6.8-12.27 7.82-2.53.82-9.78 1.27-13.43.97-3.75-.33-11.34-1.64-15.1-2.68-7.13-2.03-19.21-9.73-19.56-10.13-.65-.8-1.25-3.22-1-4 .49-1.3 3.33-3.21 7.94-5.95 7.01-4.11 24.64-14.52 27.91-17.44 1.06-1.01 1.22-2.61.18-3.27-.36-.21-9.26-3.11-12.11-4.4-4.4-2.02-19.38-11.2-25.36-14.97-8-5.22-19.77-13.95-25.35-18.87-5.26-4.66-15.55-15.52-20.64-21.17-5.13-5.92-15.53-18.67-20.75-25.21-11.66-15.25-22.4-32.8-23.35-35.47z"/>
        <path id="etusofnMH4z23" fill="none" stroke-width="75" d="M3230.64 52.13h0"/>
        <path id="etusofnMH4z24" fill="none" stroke-width="75" d="M3136.96 998.43h0"/>
        <path id="etusofnMH4z25" fill="none" stroke-width="75" d="M2711.23 478.37h0"/>
        <path id="etusofnMH4z26" fill="none" stroke-width="75" d="M3657.53 572.05h0"/>
        <path id="etusofnMH4z27" fill="none" stroke-width="75" d="M2882.66 157.68h0"/>
        <path id="etusofnMH4z28" fill="none" stroke-width="75" d="M3485.55 893.06h0"/>
        <path id="etusofnMH4z29" fill="none" stroke-width="75" d="M2816.78 826.35h0"/>
        <path id="etusofnMH4z30" fill="none" stroke-width="75" d="M3552.15 223.45h0"/>
        <path id="etusofnMH4z31" fill="none" stroke-width="45" d="M3050.69 68.94h0"/>
        <path id="etusofnMH4z32" fill="none" stroke-width="45" d="M3317.19 981.76h0"/>
        <path id="etusofnMH4z33" fill="none" stroke-width="45" d="M2728.04 658.31h0"/>
        <path id="etusofnMH4z34" fill="none" stroke-width="45" d="M3640.86 391.82h0"/>
        <path id="etusofnMH4z35" fill="none" stroke-width="45" d="M2767.3 296.81h0"/>
        <path id="etusofnMH4z36" fill="none" stroke-width="45" d="M3601.21 753.82h0"/>
        <path id="etusofnMH4z37" fill="none" stroke-width="45" d="M2955.9 941.7h0"/>
        <path id="etusofnMH4z38" fill="none" stroke-width="45" d="M3412.92 107.8h0"/>
        <path id="etusofnMH4z39" fill="none" stroke-width="6"
              d="M3424.61 446.21c.84 4.29 1.24 8.06.84 12.02-.51 4.67-1.88 12.39-2.98 16.12-.68 2.23-3.79 9.53-5.12 11.87-1.69 2.95-6.48 8.64-9.18 10.99-2.74 2.36-9 6.89-12.11 8.75-3.47 2.06-11.25 5.5-15.35 6.78-6.47 1.99-21.73 4.06-30.96 4.4-8.47.31-23.7-.58-31.55-1.76-17.09-2.75-30.7-5.57-32.83-6.02"/>
        <path id="etusofnMH4z40" fill="none" stroke-width="6"
              d="M3422.84 448.5c-.1 2.44-.39 9.54-1.09 12.59-.9 3.84-3.91 10.53-5.43 13.27-3.76 6.7-12.99 18.11-19.05 23.36-3.22 2.77-9.14 7.06-12.74 9.08-6.52 3.6-21.51 8.44-30.01 10.06-8.03 1.5-23.56 2.97-31.98 2.75-15.11-.44-29.66-3.05-35.89-4.37"/>
        <path id="etusofnMH4z41" fill="#000" stroke-width="3"
              d="M5977.48 561.11c6.65 2.38 21.16 7.58 29.02 10.39 4.73 1.66 13.47 4.64 13.61 4.61.02-.02-15.11-11.06-20.67-15.96-5.58-4.92-15.87-15.65-20.33-21.56-4.69-6.26-7.15-11.85-7.51-12.66 6.28 3.5 23.99 13.24 27.69 14.98 6.8 3.17 21.91 7.11 28.39 8.09 3.57.53 12.59.97 14.54.98 6.84-.03 15.79-2.42 27.28-6.48 14.2-5.16 43.61-15.59 58.76-20.46 10.36-2.99 19.64-5.22 29.53-7.15 8.81-1.49 23.36-3.28 29.39-3.62 5.92-.3 22.44-.35 29.57-.13 8.5.4 20.39 1.67 30.56 3.25 8.67 1.5 22.04 5.22 25.85 5.79 3.44.49 8.59.16 11.69-.75 2.63-.81 8.59-4.06 10.65-5.93 2.45-2.28 8.45-12.47 15.01-24.36 2.76-5.13 4-7.93 3.99-11.64-.01-1.49.32-29.28 0-30-.53-1.06-6.58.81-9.15 1.61-15.94 4.86-48.26 14.61-50.85 14.39-1.33-.15-3.54-1.21-4-2-.32-.62-.31-3.24 0-4 .84-1.89 4.19-4.12 8.97-6.73 14.29-7.5 38.25-19.82 39.03-20.27 1.19-.77 3.83-2.49 4-3 .17-.53-.17-7.64 0-11 .29-5.33 2.76-21.68 3.85-24.84.79-2.18 4.32-6.61 7.35-9.74 6.34-6.49 14.93-12.73 22.58-16.98 5.05-2.78 9.39-4.76 13.22-5.44 4.97-.83 22.07 1.19 26.97 2.53 5.42 1.56 19.69 7 22.05 8.36 3.09 1.83 7.55 6.99 10.32 11.36 2.16 3.45 3.6 6.9 4.66 10.75 2.58 10.04 3.91 16.47 3.81 17.74-.13 1.19-1.52 3.32-2.76 4.26-1.07.8-6.87 4.22-7.05 5-.06.3 1.78 4.48 2 6 .17.99.34 4.85 1 6 .77 1.29 8.31 6.25 10.25 7.18 2.11.97 20.17 5.21 28.36 7.08 7.54 1.54 17.92 3.72 19.96 5.2 1.01.73 1.81 3.13 2.43 3.54.56.37 2.24 0 3.59.42 2.25.63 8.89 1.34 10.41 1.58 2.46.41 8.8 2.12 11.1 3.43 1.52.9 3.2 2.92 3.97 4.71 1.17 2.84 1.04 7.49-.13 10.52-.78 1.93-2.43 4.21-3.88 5.21-2.51 1.67-8.71 2.69-11.06 2.13-1.34-.35-4.62-1.93-5.82-2.82-1.3-1-3.03-3.38-3.52-4.82-.33-1.04-.77-4.53-.66-5.36.13-.94 1.07-3.77 1-4-.21-.56-6.96-1.31-9.85-1.71-2.85-.36-3.82-.15-9.39 1.29-6.92 1.75-21.11 5.22-28.39 6.94-9.19 2.13-21.46 6.13-26.63 9.5-2.8 1.86-7.65 6.58-10.16 9.73-4.28 5.42-11.77 18.48-14.72 24.3-3.52 6.98-6.84 15.76-10.01 25.58-4.58 15.38-13.84 46.81-18.82 60.41-2.86 7.27-8.92 21.36-12.42 27.36-3.79 6.45-12.39 16.31-20.57 24.61-6.38 6.36-15.03 13.84-21.9 17.61-5.19 2.79-23.26 11.44-29.12 13.48-3.13 1.07-10.42 3.06-13.99 3.77-3.69.68-10.81 2.12-12.94 3.96-1.11.97-8.01 7.21-11.24 9.69-2.92 2.24-10.98 8.31-11.83 8.87-2.86 1.89-8.54 3.15-11.94 2.96-5.56-.37-22.96-4.1-26.08-5.35-3.39-1.38-8.97-5.63-9.49-6.95-.34-1.03 1.33-3.08 3.61-4.75 1.87-1.36 2.83-2.13 2.88-2.3.43-1.74-14.92-2.28-16-2-2.06.57-6.66 6.02-8.32 8.04-5.59 6.91-11.75 17.02-16.31 26.76-1.18 2.6-2.36 4.88-2.37 5.2 0 1.28 1.24 2.15 2.8 2.08.84-.06 20.8-.55 29.37-.82 7.42-.13 21.23-.24 28.4.51 3.12.33 18.26 1.32 27.5 2.72 3.8.59 9.81 2.61 10.64 3.63.59.85.06 2.56-1.24 4.12-4.45 5.19-15.56 14.05-21.67 17.71-3.8 2.25-8.8 4.2-11.69 4.19-11.98-.15-42.11-5.14-56.1-7.09-15.41-2.15-37.59-8.81-38.01-9.05-1.06-.64-2.72-2.83-3-4-.27-1.35.27-4.53 1-6 .42-.8 13.6-16.9 18.88-23.32 7.25-9.18 18.19-27.31 18.12-27.68-.28-1.11-2.32-2.15-4.61-2.52-5.72-.85-21.67-5.33-29.39-8.48-3.34-1.37-20.68-9.49-28-14-5.78-3.58-19.32-13.58-25.1-18.06-7.28-5.79-13.14-11.43-20.9-19.94-13.4-15.12-25.72-30.79-39.94-51-7.06-10.2-8.47-12.45-10.08-15.39z"/>
        <path id="etusofnMH4z42" fill="#000" stroke-width="3"
              d="M6542.5 371.5c.67.3 1.27 3.18 1 4-.14.4-5.47 7.74-9.73 13.17-2.65 3.27-7.49 9.22-9.62 10.44-1.22.67-2.26-.06-2.65-1.61-.31-1.52 1.44-4.79 4.96-9.45 4.78-6.23 12.68-16.4 13.04-16.55 1.04-.37 2.04-.37 3 0z"/>
        <path id="etusofnMH4z43" fill="#000" stroke-width="3"
              d="M6581.5 385.5c.64-.02 3.84 1.7 4 2 .42.96-3.53 3.31-8.77 6.03-8.23 4.18-18.92 9.38-22.06 10.06-1.6.32-3.11-.84-3.17-2.09.02-1.08 3.4-3.24 8.87-6.03 4.22-2.09 19.99-9.91 21.13-9.97z"/>
        <path id="etusofnMH4z44" fill="#000" stroke-width="3"
              d="M6540.5 421.5c.98-.89 24.14.73 26 2 1.41 1.02 2.06 3.39 1 4-.38.2-8.54.09-15.08-.38-6.05-.49-12.76-1.56-12.92-2.62-.12-1.21.22-2.21 1-3z"/>
        <path id="etusofnMH4z45" fill="none" stroke-width="75" d="M6358.12 58.99h0"/>
        <path id="etusofnMH4z46" fill="none" stroke-width="75" d="M6171.53 991.44h0"/>
        <path id="etusofnMH4z47" fill="none" stroke-width="75" d="M5799.19 431.9h0"/>
        <path id="etusofnMH4z48" fill="none" stroke-width="75" d="M6731.63 618.49h0"/>
        <path id="etusofnMH4z49" fill="none" stroke-width="75" d="M6001.42 129.69h0"/>
        <path id="etusofnMH4z50" fill="none" stroke-width="75" d="M6528.82 920.96h0"/>
        <path id="etusofnMH4z51" fill="none" stroke-width="75" d="M5869.89 788.6h0"/>
        <path id="etusofnMH4z52" fill="none" stroke-width="75" d="M6661.16 261.2h0"/>
        <path id="etusofnMH4z53" fill="none" stroke-width="45" d="M6177.39 57.97h0"/>
        <path id="etusofnMH4z54" fill="none" stroke-width="45" d="M6352.53 992.63h0"/>
        <path id="etusofnMH4z55" fill="none" stroke-width="45" d="M5798.17 612.63h0"/>
        <path id="etusofnMH4z56" fill="none" stroke-width="45" d="M6732.83 437.49h0"/>
        <path id="etusofnMH4z57" fill="none" stroke-width="45" d="M5872.9 256.76h0"/>
        <path id="etusofnMH4z58" fill="none" stroke-width="45" d="M6657.65 793.82h0"/>
        <path id="etusofnMH4z59" fill="none" stroke-width="45" d="M5996.96 917.12h0"/>
        <path id="etusofnMH4z60" fill="none" stroke-width="45" d="M6534.02 132.37h0"/>
        <path id="etusofnMH4z61" fill="none" stroke-width="6"
              d="M6498.42 473.98c.47 2.65 1.65 9.62 1.71 12.89.04 3.57-1.2 12.31-1.99 15.59-.84 3.39-3.41 9.75-5.2 12.53-1.27 1.95-6.25 7.67-8.66 9.66-2.63 2.13-8.76 5.21-12.68 6.53-6.79 2.25-23.49 5.37-31.34 6.27-16.87 1.89-64.47 1.35-73.53.77"/>
        <path id="etusofnMH4z62" fill="none" stroke-width="6"
              d="M6497.07 474.94c-.61 9.53-2.09 21.53-4.15 26.55-.96 2.3-4.99 9.09-7.02 11.81-2.24 2.94-7.51 8-10.38 9.94-5.27 3.48-19.86 9.11-26.95 10.9-7.54 1.85-21.17 4.33-29.19 5.22-11.03 1.21-48.62 1.92-59.87 1.2"/>
        <path id="etusofnMH4z63" fill="#000" stroke-width="3.72"
              d="M9413.5 353.5c1.04.09 2.47 1.51 2.46 2.6-.09 2.04-4.71 8.87-6.68 11.61-1.45 2.02-3.82 5.13-4.95 6.6-1.41 1.84-2.62 2.83-3.98 3.25-1.08.29-3.69-1.03-3.85-2.06-.06-.59 16.3-22.01 17-22z"/>
        <path id="etusofnMH4z64" fill="#000" stroke-width="3"
              d="M8836.5 527.5c6.37 1.35 24.06 5.04 27.88 5.67 8.89 1.4 20.01 1.41 28.06.56 8.53-.92 23.44-3.9 31.85-6.4 13.69-4.11 45.91-16.82 52.91-19.27 8.23-2.72 26.75-8.67 32.52-10.05 5.1-1.2 20.58-3.83 26.22-4.24 4.16-.29 21.42-.59 29.09-.52 13.27.36 45.53 4.27 59.26 7 5.53 1.14 11.38 2.48 13.17 2.96 1.75.43 3.45.19 5.04-.71 1.39-.83 6.39-6.01 8.83-9.1 3.71-4.73 11.17-18.9 14.45-25.45 1.92-3.88 4.03-9.86 4.21-12.99.07-1.35-.65-10.13-1.49-10.46-.11-.04-53.89 19.44-56.67 19.89-1.4.19-3.22-.42-3.82-1.41-.59-1.06-.44-3.18.27-4.72 1.4-2.81 6.05-6.38 10.59-9.18 14.54-8.22 38.51-22.3 38.77-22.59 1.45-1.63 1.92-3.18 1.38-5.12-.68-2.4-1.41-12.12-1.51-14.65-.17-4.55.25-10.99 1.08-13.99.77-2.65 3.09-7.83 4.49-9.99 4.25-6.45 24.09-20.9 32.42-26.24 2.71-1.66 6.64-2.06 11.14-2.27 7.56-.3 18.19 1.36 27.96 3.58 3.37.78 9.85 2.61 12.43 3.6 2.81 1.11 8.43 4.95 10.47 7.09 2.62 2.83 10.85 20.61 12 24 1.31 3.95 2.13 10.46 1.82 12.51-.16.98-2.9 2.71-3.82 3.49-.79.68-.64 3.02 0 4 .85 1.18 7.71 4.95 10.47 6.05 5.26 2.05 40.12 9.83 42.21 10.37 1.67.44 7.12 3.7 9.74 4.15 2.32.38 10.06 1.46 12.79 2.05 2.98.67 8.3 2.81 10.11 4.61 1.04 1.08 2.35 3.95 2.68 5.77.17 1.03.04 5.32-.13 6.47-.29 1.72-1.44 4.23-2.42 5.28-1.85 1.86-7.54 3.88-10.73 3.83-1.65-.06-4.54-.85-6.13-1.66-1.64-.88-4.06-2.9-4.87-4.11-1.31-2.05-1.75-7.11-.97-10.25.22-1.03-1.31-1.97-3.95-2.55-2.62-.52-5.46-.55-7.31-.05-3.8 1.13-21.98 5.43-30.96 7.53-12 2.85-22.53 5.82-27.68 8.65-3.47 1.94-7.56 5.48-10.77 8.81-5.17 5.49-12.2 17.35-16.17 26.2-4.68 10.73-8.27 19.91-10.12 26.81-1.62 6.13-9.49 41.42-13.66 56.27-1.85 6.32-7.75 22.83-10.13 27.77-2.94 6.06-11.84 18.66-16.91 24.52-8.91 10.23-25.57 22.18-28.71 24.14-1.71 1.08-4.06 1.77-4.83 2.16-.85.46-.3 1.7 1.28 3.18 4.54 4.17 9.12 9.36 10.88 12.73.88 1.74 1.69 4.89 1.66 6.46-.08 2.08-2.07 9.32-3.51 13.49-2.63 7.55-10.13 20.46-10.86 21.32-1.69 1.95-4.22 3.62-6 4-2.19.39-7.08-.57-10.76-2.06-5.25-2.18-10.8-4.93-13.24-6.94-3.16-2.67-7.68-10.13-8-12-.26-1.98.96-3.73 4-6 1.58-1.15 11.29-8.96 12-10 .61-.97.28-2.1-1-4-.57-.8-3.56-5.5-4-6-1.33-1.43-4.83-.84-9.34.29-10.77 2.83-22.15 5.39-27.94 6.03-5.59.61-22.8 1.09-31.11 1.13-10.99-.18-23.55-.92-30.89-1.88-6.77-1.02-20.65-3.28-28.17-4.73-9.22-1.96-19.67-4.73-24.55-6.84-4.61-1.95-7.28-2.4-10.27-1.39-3.86 1.37-19.65 9.58-25.57 12.76-7.69 4.22-20.19 12.14-26.6 17.45-.84.7-9.36 7.89-9.56 8.18-.95 1.51-1 3.36-.14 5.35 1.35 3.38 4.24 10.22 6.27 12.65 1.69 1.96 6.95 5.29 9.77 6.52 5.1 2.17 31.45 8.58 33.1 9.48 1.61.93 3.13 2.84 3 4-.17 1.05-6.93 6.98-9.67 9.04-4.05 3.02-9 5.97-12.18 7.09-3.51 1.19-9.39 2.14-13.15 1.87-2.85-.23-10.13-2-13.77-3.31-4.03-1.49-10.12-4.85-13.41-7.84-3.12-2.88-6.97-7.41-7.77-9.53-1.49-4.06-4.21-20.12-4.36-29.09-.06-3.91.21-13.61.31-14.23.44-2.55 1.67-5.05 3-6 .72-.48 18.45-6.68 24-9 2.97-1.25 17.26-8.99 22.89-13.02 3.35-2.46 12.65-9.4 12.76-9.47 1.88-1.3 2.94-2.75 2.5-3.68-.06-.1-22.19-14.12-26.6-17.22-5.49-3.88-17.36-13.55-23.94-19.42-10.97-10.3-36.55-37.56-41.43-43.64-4.1-5.55-9.32-12.52-9.26-12.7.42-.95 5.31-.77 12.56-.74 12.84-.07 23.87-.86 23.79-2.09-.02-.19-19.39-10-25.52-14.16-3.5-2.39-17.24-13.46-16.87-14.23.35-.67 2.33-.34 2.97.29"/>
        <path id="etusofnMH4z65" fill="#000" stroke-width="3.72"
              d="M9465.5 374.5c1.27.01 2.63 2.03 2 3-.25.36-7.53 4.59-13.69 7.78-3.15 1.61-10.82 5.4-12.31 5.22-1.18-.18-3.82-1.45-4-2-.38-1.57 27.54-13.99 28-14z"/>
        <path id="etusofnMH4z66" fill="#000" stroke-width="3.72"
              d="M9424.5 423.5c.53-.43 18.5.31 23.18.68 2.31.16 4.17.76 5.16 1.71.76.81.51 2.37-.51 2.87-1.85.85-9.67.65-12.69.49-10.85-.72-16.02-2.02-16.14-2.75-.14-1.27.19-2.27 1-3z"/>
        <path id="etusofnMH4z67" fill="none" stroke-width="75" d="M9263.34 70.3h0"/>
        <path id="etusofnMH4z68" fill="none" stroke-width="75" d="M8986.37 980h0"/>
        <path id="etusofnMH4z69" fill="none" stroke-width="75" d="M8670.59 386.7h0"/>
        <path id="etusofnMH4z70" fill="none" stroke-width="75" d="M9580.29 663.68h0"/>
        <path id="etusofnMH4z71" fill="none" stroke-width="75" d="M8901.44 105.74h0"/>
        <path id="etusofnMH4z72" fill="none" stroke-width="75" d="M9348.84 944.84h0"/>
        <path id="etusofnMH4z73" fill="none" stroke-width="75" d="M8706.03 748.6h0"/>
        <path id="etusofnMH4z74" fill="none" stroke-width="75" d="M9545.13 301.2h0"/>
        <path id="etusofnMH4z75" fill="none" stroke-width="45" d="M9083.58 51.59h0"/>
        <path id="etusofnMH4z76" fill="none" stroke-width="45" d="M9166.38 998.91h0"/>
        <path id="etusofnMH4z77" fill="none" stroke-width="45" d="M8651.88 566.46h0"/>
        <path id="etusofnMH4z78" fill="none" stroke-width="45" d="M9599.2 483.67h0"/>
        <path id="etusofnMH4z79" fill="none" stroke-width="45" d="M8761.1 219.62h0"/>
        <path id="etusofnMH4z80" fill="none" stroke-width="45" d="M9489.5 830.93h0"/>
        <path id="etusofnMH4z81" fill="none" stroke-width="45" d="M8819.91 888.95h0"/>
        <path id="etusofnMH4z82" fill="none" stroke-width="45" d="M9431.22 160.55h0"/>
        <path id="etusofnMH4z83" fill="none" stroke-width="6"
              d="M9350.34 454.35c-1.8 6.84-6.22 23.25-9.14 29.92-1.55 3.49-4.93 9.91-6.67 12.55-1.84 2.78-6.31 8.04-8.88 10.3-2.65 2.3-8.49 6.24-11.74 7.94-3.16 1.62-10 4.26-13.68 5.16-6.72 1.61-24.15 2.95-31.88 2.84-10.63-.29-38.8-2.37-47.54-3.18"/>
        <path id="etusofnMH4z84" fill="none" stroke-width="6"
              d="M9349.15 454.94c-3.51 9.78-7.81 20.38-10.84 26.27-3.43 6.62-13.82 20.71-18.94 25.69-2.84 2.73-9.07 7.25-12.3 9.04-6.56 3.61-19.74 7.96-27.11 9.26-7.26 1.26-19.82 1.99-31.84 2.04-22.66-.4-32.27-2.36-33.47-2.59"/>
        <path id="etusofnMH4z85" fill="#000" stroke-width="3"
              d="M11831.5 353.5c1.03-.21 2.37 1.51 2.34 2.79-.08 1.4-.73 3.3-1.54 4.42-.88 1.16-2.42 2.19-3.91 2.65-1.4.38-3.1-.56-2.89-1.86.12-.62 5.42-7.86 6-8z"/>
        <path id="etusofnMH4z86" fill="#000" stroke-width="3"
              d="M11883.5 374.5c1.38.35 2.56 1.98 2 3-.37.63-3.65 2.5-5.36 3.26-1.8.76-4.02.67-4.64-.22-.52-.87.4-2.85 1.64-3.73 2.34-1.57 5.47-2.5 6.36-2.31z"/>
        <path id="etusofnMH4z87" fill="#000" stroke-width="3"
              d="M11864.5 424.5c1.38-.34 5.23.26 6 1 .75.79.08 3.41-1 4-.85.42-5.04.44-6 0-1.08-.54-1.75-1.2-2-2-.16-.65 2.02-2.72 3-3z"/>
        <path id="etusofnMH4z88" fill="none" stroke-width="75" d="M11724.84 85.82h0"/>
        <path id="etusofnMH4z89" fill="none" stroke-width="75" d="M11360.94 964.36h0"/>
        <path id="etusofnMH4z90" fill="none" stroke-width="75" d="M11104.2 343.23h0"/>
        <path id="etusofnMH4z91" fill="none" stroke-width="75" d="M11982.74 707.14h0"/>
        <path id="etusofnMH4z92" fill="none" stroke-width="75" d="M11361.21 85.99h0"/>
        <path id="etusofnMH4z93" fill="none" stroke-width="75" d="M11725.11 964.53h0"/>
        <path id="etusofnMH4z94" fill="none" stroke-width="75" d="M11104.37 706.87h0"/>
        <path id="etusofnMH4z95" fill="none" stroke-width="75" d="M11982.91 342.96h0"/>
        <path id="etusofnMH4z96" fill="none" stroke-width="45" d="M11547.75 49.76h0"/>
        <path id="etusofnMH4z97" fill="none" stroke-width="45" d="M11538.27 1000.64h0"/>
        <path id="etusofnMH4z98" fill="none" stroke-width="45" d="M11068.14 520.33h0"/>
        <path id="etusofnMH4z99" fill="none" stroke-width="45" d="M12019.02 529.81h0"/>
        <path id="etusofnMH4z100" fill="none" stroke-width="45" d="M11210.49 185.71h0"/>
        <path id="etusofnMH4z101" fill="none" stroke-width="45" d="M11876.16 864.79h0"/>
        <path id="etusofnMH4z102" fill="none" stroke-width="45" d="M11204.1 857.59h0"/>
        <path id="etusofnMH4z103" fill="none" stroke-width="45" d="M11883.18 191.92h0"/>
        <path id="etusofnMH4z104" fill="none" stroke-width="6"
              d="M11775 442.75c-3.26 8.83-7.35 16.55-12.79 25.2-4.48 6.89-14.03 17.56-20.04 22.61-5.65 4.72-18.67 13.45-24.7 16.55-6.83 3.48-21.13 8.45-28.27 9.96-7.52 1.55-19.94 1.95-29.69 1.13-8.78-.88-16.73-3.05-19.01-3.7"/>
        <path id="etusofnMH4z105" fill="none" stroke-width="6"
              d="M11771.95 444.29c-3.16 5.09-11.19 17.92-17.35 25.87-2.22 2.85-16.92 19.65-19.98 22.73-5.59 5.59-17.74 15.16-24.49 19.02-6.37 3.6-20.53 9.07-27.22 10.76-7.65 1.89-21.15 2.42-30.27 1.62-8.73-.86-15.56-3.6-17.5-4.42"/>
        <path id="etusofnMH4z106" fill="none" stroke-width="75" d="M14424.59 105.46h0"/>
        <path id="etusofnMH4z107" fill="none" stroke-width="75" d="M13977.28 944.61h0"/>
        <path id="etusofnMH4z108" fill="none" stroke-width="75" d="M13781.93 301.53h0"/>
        <path id="etusofnMH4z109" fill="none" stroke-width="75" d="M14621.08 748.84h0"/>
        <path id="etusofnMH4z110" fill="none" stroke-width="75" d="M14062.65 70.39h0"/>
        <path id="etusofnMH4z111" fill="none" stroke-width="75" d="M14339.72 980.06h0"/>
        <path id="etusofnMH4z112" fill="none" stroke-width="75" d="M13746.86 663.46h0"/>
        <path id="etusofnMH4z113" fill="none" stroke-width="75" d="M14656.53 386.4h0"/>
        <path id="etusofnMH4z114" fill="none" stroke-width="45" d="M14251.82 52.41h0"/>
        <path id="etusofnMH4z115" fill="none" stroke-width="45" d="M14150.25 997.9h0"/>
        <path id="etusofnMH4z116" fill="none" stroke-width="45" d="M13728.88 474.3h0"/>
        <path id="etusofnMH4z117" fill="none" stroke-width="45" d="M14674.37 575.86h0"/>
        <path id="etusofnMH4z118" fill="none" stroke-width="45" d="M13902.97 155.05h0"/>
        <path id="etusofnMH4z119" fill="none" stroke-width="45" d="M14499.72 895.43h0"/>
        <path id="etusofnMH4z120" fill="none" stroke-width="45" d="M13831.52 823.14h0"/>
        <path id="etusofnMH4z121" fill="none" stroke-width="45" d="M14571.9 226.4h0"/>
        <path id="etusofnMH4z122" fill="#000" stroke-width="3"
              d="M13913.87 538.5c1.13.75 2.13 1.25 4.23 2.07 3.7 1.46 11.03 4.42 14.65 5.91 3.79 1.53 20.36 7.11 21.69 6.9.4-.1-16.2-12.92-21.8-17.93-5.59-5.03-15.17-15.43-19.51-21.52-2.2-3.12-3.87-6.5-5.35-10.22 8.12 4.89 23.54 12.88 27.72 14.79 6.91 3.13 18.76 6.94 25.93 8.16 6.93 1.15 18.07.84 24.18.49 6.28-.43 18.01-4.29 23.26-5.96 3.56-1.25 22.43-8.64 30.05-11.66 7.85-3.13 11.39-4.29 23.6-8.07 10.53-3.34 16.15-4.81 26.19-6.93 10.94-2.18 23.4-4 32.83-4.69 5.49-.35 27.5-.48 31.87-.25 8.25.46 21.57 2.73 28.09 3.91 7.48 1.57 25.39 5.32 28.39 5.81 2.81.44 7.35.02 12.74-1.1 3.69-.81 6.01-2.6 8.43-5.69 4.79-6.2 15.24-19.91 18.81-25.79 3.37-5.6 7.12-15.26 7.19-17.71.01-.3-.78-8.23-1.56-8.52-.67-.2-51.72 21.73-55.55 23.22-1.51.54-4.86 1.73-5.45 1.78-1.29.08-3.65-1.01-4-2-.35-1.18.83-4.62 2-6 1.11-1.26 45.46-31.23 46.03-31.68 1.42-1.15 2.27-3.01 2.08-4.14-1.29-6.15-2.42-23.64-1.81-28.38.34-2.45 3.24-9.43 5.03-12.16 2.93-4.45 15.61-16.61 20.28-20.22 2.41-1.85 7.93-6.21 10.39-7.42 1.55-.74 8.12-2.68 12-3 4.34-.33 21.57 1.08 26.64 2.07 3.18.63 9.12 2.73 12.34 4.36 3.43 1.75 9.79 5.54 12.65 7.63 3.05 2.29 6.37 6.55 8.01 10.53 1.48 3.7 4.44 12.05 4.88 13.43 1.26 4 1.8 9.02.85 11.99-.4 1.22-.34 2.89.1 4.33.53 1.57.28 3.04.53 3.66.03.06 7 4.53 9.42 5.69 5.79 2.76 20.57 6.65 33.14 9.3 3.4.73 12.49 2.63 12.98 2.78 2.52.76 5.16 5.08 5.46 5.23.59.3 2.29 0 3.56.38 2.4.69 9.3 1.46 10.44 1.62 3.5.51 8.06 1.8 10.41 3.45 1.05.77 3.4 3.01 3.96 3.98.93 1.7 1.79 5.48 1.58 7.42-.23 1.75-1.91 5.85-2.94 7.18-1.04 1.25-4.25 3.31-5.9 3.82-1.83.51-5.86.55-7.89.15-1.1-.24-4.45-1.81-5.25-2.4-1.13-.89-2.65-3.35-3.06-4.93-.25-1.07-.66-5.23-.59-5.97.07-.81.46-3.37-.17-3.78-1.22-.73-12.84-3-13.15-2.92-.45.13-1.28 1.24-2.51 1.49-2.62.54-19.47 4.73-27.37 6.71-9.66 2.55-21.06 5.99-25.12 7.8-2.94 1.34-8.3 4.37-12 8-3.63 3.62-16.65 21.38-19.31 25.54-3.13 4.9-10.53 18.67-13.34 25.87-3.11 8.01-14.04 47.22-16.28 54.36-1.95 6.05-8.3 21.39-11.42 28.36-3.56 7.78-12.24 21.02-17.24 27.28-4.53 5.64-15.03 14.32-20.32 18.35-6.65 5.02-16.55 10.76-25.59 15.06-8.86 4.07-16.87 6.85-27.13 8.88-2 .37-5.84 1.13-7.68 1.51-2.05.46-4.24 1.65-4.68 2.8-.35 1.02 1.18 9.8 1.41 10.8 1.88 7.81 15.85 37.94 18.29 41.37.43.6 5.14 6.93 6.29 6.82.33-.05 18.31-14.36 22.99-17.8 15.16-10.95 30.57-21.18 34.56-22.91 3.11-1.32 8.58-1.23 12.5-.19 4.2 1.17 8.02 2.78 11.11 4.91 2.79 1.95 9.34 7.3 9.57 8.81.16 1.25-1.09 3.9-2.1 5-3.75 3.81-18.83 13.25-26.18 17.06-5.79 2.93-21.71 10.14-28.45 13.12-8.08 3.36-20.7 8.3-26.84 10.3-3.8 1.23-12.98 4.18-16.45 4.64-1.65.19-4.8-.23-6.28-.94-1.5-.76-2.95-2.74-3.02-3.92-.18-6.09-2.5-15.24-5.58-26.21-1.57-5.36-7.65-21.11-8.27-22.58-2.74-6.43-14.02-23.85-15.56-25.29-1.16-1.03-6.72-.94-9.44-.89-23.16.13-40.1-.94-51.21-2.84-1.23-.18-2.74.45-3.71 1.5-4.45 5.09-18.21 18.62-21.28 21.25-3.21 2.7-9.29 6.8-12.27 7.82-2.53.82-9.78 1.27-13.43.97-3.75-.33-11.34-1.64-15.1-2.68-7.13-2.03-19.21-9.73-19.56-10.13-.65-.8-1.25-3.22-1-4 .49-1.3 3.33-3.21 7.94-5.95 7.01-4.11 24.64-14.52 27.91-17.44 1.06-1.01 1.22-2.61.18-3.27-.36-.21-9.26-3.11-12.11-4.4-4.4-2.02-19.38-11.2-25.36-14.97-8-5.22-19.77-13.95-25.35-18.87-5.26-4.66-15.55-15.52-20.64-21.17-5.13-5.92-15.53-18.68-20.75-25.22-11.67-15.24-22.4-32.78-23.45-35.71z"/>
        <path id="etusofnMH4z123" fill="none" stroke-width="6"
              d="M14441.61 446.21c.84 4.29 1.24 8.06.84 12.02-.51 4.67-1.88 12.39-2.98 16.12-.68 2.23-3.79 9.53-5.12 11.87-1.69 2.95-6.48 8.64-9.18 10.99-2.74 2.36-9 6.89-12.11 8.75-3.47 2.06-11.25 5.5-15.35 6.78-6.47 1.99-21.73 4.06-30.96 4.4-8.47.31-23.7-.58-31.55-1.76-17.09-2.75-30.7-5.57-32.83-6.02"/>
        <path id="etusofnMH4z124" fill="none" stroke-width="6"
              d="M14439.84 448.5c-.1 2.44-.39 9.54-1.09 12.59-.9 3.84-3.91 10.53-5.43 13.27-3.76 6.7-12.99 18.11-19.05 23.36-3.22 2.77-9.14 7.06-12.74 9.08-6.52 3.6-21.51 8.44-30.01 10.06-8.03 1.5-23.56 2.97-31.98 2.75-15.11-.44-29.66-3.05-35.89-4.37"/>
        <path id="etusofnMH4z125" fill="none" stroke-width="75" d="M16487.44 59.28h0"/>
        <path id="etusofnMH4z126" fill="none" stroke-width="75" d="M16674.09 991.71h0"/>
        <path id="etusofnMH4z127" fill="none" stroke-width="75" d="M16115.09 618.58h0"/>
        <path id="etusofnMH4z128" fill="none" stroke-width="75" d="M17047.52 431.93h0"/>
        <path id="etusofnMH4z129" fill="none" stroke-width="75" d="M16185.43 261.81h0"/>
        <path id="etusofnMH4z130" fill="none" stroke-width="75" d="M16976.74 789.16h0"/>
        <path id="etusofnMH4z131" fill="none" stroke-width="75" d="M16317.62 920.59h0"/>
        <path id="etusofnMH4z132" fill="none" stroke-width="75" d="M16844.96 129.28h0"/>
        <path id="etusofnMH4z133" fill="none" stroke-width="45" d="M16320.24 127.89h0"/>
        <path id="etusofnMH4z134" fill="none" stroke-width="45" d="M16841.6 923.16h0"/>
        <path id="etusofnMH4z135" fill="none" stroke-width="45" d="M16183.7 785.78h0"/>
        <path id="etusofnMH4z136" fill="none" stroke-width="45" d="M16978.96 264.42h0"/>
        <path id="etusofnMH4z137" fill="none" stroke-width="45" d="M16115.72 428.56h0"/>
        <path id="etusofnMH4z138" fill="none" stroke-width="45" d="M17046.71 622.23h0"/>
        <path id="etusofnMH4z139" fill="none" stroke-width="45" d="M16484.36 990.3h0"/>
        <path id="etusofnMH4z140" fill="none" stroke-width="45" d="M16678.04 59.31h0"/>
        <path id="etusofnMH4z141" fill="#000" stroke-width="3"
              d="M16293.48 561.11c6.65 2.38 21.16 7.58 29.02 10.39 4.73 1.66 13.47 4.64 13.61 4.61.02-.02-15.11-11.06-20.67-15.96-5.58-4.92-15.87-15.65-20.33-21.56-4.69-6.26-7.15-11.85-7.51-12.66 6.28 3.5 23.99 13.24 27.69 14.98 6.8 3.17 21.91 7.11 28.39 8.09 3.57.53 12.59.97 14.54.98 6.84-.03 15.79-2.42 27.28-6.48 14.2-5.16 43.61-15.59 58.76-20.46 10.36-2.99 19.64-5.22 29.53-7.15 8.81-1.49 23.36-3.28 29.39-3.62 5.92-.3 22.44-.35 29.57-.13 8.5.4 20.39 1.67 30.56 3.25 8.67 1.5 22.04 5.22 25.85 5.79 3.44.49 8.59.16 11.69-.75 2.63-.81 8.59-4.06 10.65-5.93 2.45-2.28 8.45-12.47 15.01-24.36 2.76-5.13 4-7.93 3.99-11.64-.01-1.49.32-29.28 0-30-.53-1.06-6.58.81-9.15 1.61-15.94 4.86-48.26 14.61-50.85 14.39-1.33-.15-3.54-1.21-4-2-.32-.62-.31-3.24 0-4 .84-1.89 4.19-4.12 8.97-6.73 14.29-7.5 38.25-19.82 39.03-20.27 1.19-.77 3.83-2.49 4-3 .17-.53-.17-7.64 0-11 .29-5.33 2.76-21.68 3.85-24.84.79-2.18 4.32-6.61 7.35-9.74 6.34-6.49 14.93-12.73 22.58-16.98 5.05-2.78 9.39-4.76 13.22-5.44 4.97-.83 22.07 1.19 26.97 2.53 5.42 1.56 19.69 7 22.05 8.36 3.09 1.83 7.55 6.99 10.32 11.36 2.16 3.45 3.6 6.9 4.66 10.75 2.58 10.04 3.91 16.47 3.81 17.74-.13 1.19-1.52 3.32-2.76 4.26-1.07.8-6.87 4.22-7.05 5-.06.3 1.78 4.48 2 6 .17.99.34 4.85 1 6 .77 1.29 8.31 6.25 10.25 7.18 2.11.97 20.17 5.21 28.36 7.08 7.54 1.54 17.92 3.72 19.96 5.2 1.01.73 1.81 3.13 2.43 3.54.56.37 2.24 0 3.59.42 2.25.63 8.89 1.34 10.41 1.58 2.46.41 8.8 2.12 11.1 3.43 1.52.9 3.2 2.92 3.97 4.71 1.17 2.84 1.04 7.49-.13 10.52-.78 1.93-2.43 4.21-3.88 5.21-2.51 1.67-8.71 2.69-11.06 2.13-1.34-.35-4.62-1.93-5.82-2.82-1.3-1-3.03-3.38-3.52-4.82-.33-1.04-.77-4.53-.66-5.36.13-.94 1.07-3.77 1-4-.21-.56-6.96-1.31-9.85-1.71-2.85-.36-3.82-.15-9.39 1.29-6.92 1.75-21.11 5.22-28.39 6.94-9.19 2.13-21.46 6.13-26.63 9.5-2.8 1.86-7.65 6.58-10.16 9.73-4.28 5.42-11.77 18.48-14.72 24.3-3.52 6.98-6.84 15.76-10.01 25.58-4.58 15.38-13.84 46.81-18.82 60.41-2.86 7.27-8.92 21.36-12.42 27.36-3.79 6.45-12.39 16.31-20.57 24.61-6.38 6.36-15.03 13.84-21.9 17.61-5.19 2.79-23.26 11.44-29.12 13.48-3.13 1.07-10.42 3.06-13.99 3.77-3.69.68-10.81 2.12-12.94 3.96-1.11.97-8.01 7.21-11.24 9.69-2.92 2.24-10.98 8.31-11.83 8.87-2.86 1.89-8.54 3.15-11.94 2.96-5.56-.37-22.96-4.1-26.08-5.35-3.39-1.38-8.97-5.63-9.49-6.95-.34-1.03 1.33-3.08 3.61-4.75 1.87-1.36 2.83-2.13 2.88-2.3.43-1.74-14.92-2.28-16-2-2.06.57-6.66 6.02-8.32 8.04-5.59 6.91-11.75 17.02-16.31 26.76-1.18 2.6-2.36 4.88-2.37 5.2 0 1.28 1.24 2.15 2.8 2.08.84-.06 20.8-.55 29.37-.82 7.42-.13 21.23-.24 28.4.51 3.12.33 18.26 1.32 27.5 2.72 3.8.59 9.81 2.61 10.64 3.63.59.85.06 2.56-1.24 4.12-4.45 5.19-15.56 14.05-21.67 17.71-3.8 2.25-8.8 4.2-11.69 4.19-11.98-.15-42.11-5.14-56.1-7.09-15.41-2.15-37.59-8.81-38.01-9.05-1.06-.64-2.72-2.83-3-4-.27-1.35.27-4.53 1-6 .42-.8 13.6-16.9 18.88-23.32 7.25-9.18 18.19-27.31 18.12-27.68-.28-1.11-2.32-2.15-4.61-2.52-5.72-.85-21.67-5.33-29.39-8.48-3.34-1.37-20.68-9.49-28-14-5.78-3.58-19.32-13.58-25.1-18.06-7.28-5.79-13.14-11.43-20.9-19.94-13.4-15.12-25.72-30.79-39.94-51-7.06-10.2-8.47-12.45-10.08-15.39z"/>
        <path id="etusofnMH4z142" fill="none" stroke-width="6"
              d="M16814.42 473.98c.47 2.65 1.65 9.62 1.71 12.89.04 3.57-1.2 12.31-1.99 15.59-.84 3.39-3.41 9.75-5.2 12.53-1.27 1.95-6.25 7.67-8.66 9.66-2.63 2.13-8.76 5.21-12.68 6.53-6.79 2.25-23.49 5.37-31.34 6.27-16.87 1.89-64.47 1.35-73.53.77"/>
        <path id="etusofnMH4z143" fill="none" stroke-width="6"
              d="M16813.07 474.94c-.61 9.53-2.09 21.53-4.15 26.55-.96 2.3-4.99 9.09-7.02 11.81-2.24 2.94-7.51 8-10.38 9.94-5.27 3.48-19.86 9.11-26.95 10.9-7.54 1.85-21.17 4.33-29.19 5.22-11.03 1.21-48.62 1.92-59.87 1.2"/>
        <path id="etusofnMH4z144" fill="none" stroke-width="75" d="M18794.04 52.26h0"/>
        <path id="etusofnMH4z145" fill="none" stroke-width="75" d="M18887.5 998.59h0"/>
        <path id="etusofnMH4z146" fill="none" stroke-width="75" d="M18368.16 571.96h0"/>
        <path id="etusofnMH4z147" fill="none" stroke-width="75" d="M19314.49 478.51h0"/>
        <path id="etusofnMH4z148" fill="none" stroke-width="75" d="M18473.47 223.91h0"/>
        <path id="etusofnMH4z149" fill="none" stroke-width="75" d="M19208.71 826.98h0"/>
        <path id="etusofnMH4z150" fill="none" stroke-width="75" d="M18539.81 892.53h0"/>
        <path id="etusofnMH4z151" fill="none" stroke-width="75" d="M19142.88 157.3h0"/>
        <path id="etusofnMH4z152" fill="none" stroke-width="45" d="M18620.87 103.99h0"/>
        <path id="etusofnMH4z153" fill="none" stroke-width="45" d="M19060.97 946.94h0"/>
        <path id="etusofnMH4z154" fill="none" stroke-width="45" d="M18419.89 745.13h0"/>
        <path id="etusofnMH4z155" fill="none" stroke-width="45" d="M19262.85 305.03h0"/>
        <path id="etusofnMH4z156" fill="none" stroke-width="45" d="M18387.6 382.94h0"/>
        <path id="etusofnMH4z157" fill="none" stroke-width="45" d="M19294.85 667.8h0"/>
        <path id="etusofnMH4z158" fill="none" stroke-width="45" d="M18698.84 978.41h0"/>
        <path id="etusofnMH4z159" fill="none" stroke-width="45" d="M18983.7 71.15h0"/>
        <path id="etusofnMH4z160" fill="#000" stroke-width="3"
              d="M18552.5 527.5c6.37 1.35 24.06 5.04 27.88 5.67 8.89 1.4 20.01 1.41 28.06.56 8.53-.92 23.44-3.9 31.85-6.4 13.69-4.11 45.91-16.82 52.91-19.27 8.23-2.72 26.75-8.67 32.52-10.05 5.1-1.2 20.58-3.83 26.22-4.24 4.16-.29 21.42-.59 29.09-.52 13.27.36 45.53 4.27 59.26 7 5.53 1.14 11.38 2.48 13.17 2.96 1.75.43 3.45.19 5.04-.71 1.39-.83 6.39-6.01 8.83-9.1 3.71-4.73 11.17-18.9 14.45-25.45 1.92-3.88 4.03-9.86 4.21-12.99.07-1.35-.65-10.13-1.49-10.46-.11-.04-53.89 19.44-56.67 19.89-1.4.19-3.22-.42-3.82-1.41-.59-1.06-.44-3.18.27-4.72 1.4-2.81 6.05-6.38 10.59-9.18 14.54-8.22 38.51-22.3 38.77-22.59 1.45-1.63 1.92-3.18 1.38-5.12-.68-2.4-1.41-12.12-1.51-14.65-.17-4.55.25-10.99 1.08-13.99.77-2.65 3.09-7.83 4.49-9.99 4.25-6.45 24.09-20.9 32.42-26.24 2.71-1.66 6.64-2.06 11.14-2.27 7.56-.3 18.19 1.36 27.96 3.58 3.37.78 9.85 2.61 12.43 3.6 2.81 1.11 8.43 4.95 10.47 7.09 2.62 2.83 10.85 20.61 12 24 1.31 3.95 2.13 10.46 1.82 12.51-.16.98-2.9 2.71-3.82 3.49-.79.68-.64 3.02 0 4 .85 1.18 7.71 4.95 10.47 6.05 5.26 2.05 40.12 9.83 42.21 10.37 1.67.44 7.12 3.7 9.74 4.15 2.32.38 10.06 1.46 12.79 2.05 2.98.67 8.3 2.81 10.11 4.61 1.04 1.08 2.35 3.95 2.68 5.77.17 1.03.04 5.32-.13 6.47-.29 1.72-1.44 4.23-2.42 5.28-1.85 1.86-7.54 3.88-10.73 3.83-1.65-.06-4.54-.85-6.13-1.66-1.64-.88-4.06-2.9-4.87-4.11-1.31-2.05-1.75-7.11-.97-10.25.22-1.03-1.31-1.97-3.95-2.55-2.62-.52-5.46-.55-7.31-.05-3.8 1.13-21.98 5.43-30.96 7.53-12 2.85-22.53 5.82-27.68 8.65-3.47 1.94-7.56 5.48-10.77 8.81-5.17 5.49-12.2 17.35-16.17 26.2-4.68 10.73-8.27 19.91-10.12 26.81-1.62 6.13-9.49 41.42-13.66 56.27-1.85 6.32-7.75 22.83-10.13 27.77-2.94 6.06-11.84 18.66-16.91 24.52-8.91 10.23-25.57 22.18-28.71 24.14-1.71 1.08-4.06 1.77-4.83 2.16-.85.46-.3 1.7 1.28 3.18 4.54 4.17 9.12 9.36 10.88 12.73.88 1.74 1.69 4.89 1.66 6.46-.08 2.08-2.07 9.32-3.51 13.49-2.63 7.55-10.13 20.46-10.86 21.32-1.69 1.95-4.22 3.62-6 4-2.19.39-7.08-.57-10.76-2.06-5.25-2.18-10.8-4.93-13.24-6.94-3.16-2.67-7.68-10.13-8-12-.26-1.98.96-3.73 4-6 1.58-1.15 11.29-8.96 12-10 .61-.97.28-2.1-1-4-.57-.8-3.56-5.5-4-6-1.33-1.43-4.83-.84-9.34.29-10.77 2.83-22.15 5.39-27.94 6.03-5.59.61-22.8 1.09-31.11 1.13-10.99-.18-23.55-.92-30.89-1.88-6.77-1.02-20.65-3.28-28.17-4.73-9.22-1.96-19.67-4.73-24.55-6.84-4.61-1.95-7.28-2.4-10.27-1.39-3.86 1.37-19.65 9.58-25.57 12.76-7.69 4.22-20.19 12.14-26.6 17.45-.84.7-9.36 7.89-9.56 8.18-.95 1.51-1 3.36-.14 5.35 1.35 3.38 4.24 10.22 6.27 12.65 1.69 1.96 6.95 5.29 9.77 6.52 5.1 2.17 31.45 8.58 33.1 9.48 1.61.93 3.13 2.84 3 4-.17 1.05-6.93 6.98-9.67 9.04-4.05 3.02-9 5.97-12.18 7.09-3.51 1.19-9.39 2.14-13.15 1.87-2.85-.23-10.13-2-13.77-3.31-4.03-1.49-10.12-4.85-13.41-7.84-3.12-2.88-6.97-7.41-7.77-9.53-1.49-4.06-4.21-20.12-4.36-29.09-.06-3.91.21-13.61.31-14.23.44-2.55 1.67-5.05 3-6 .72-.48 18.45-6.68 24-9 2.97-1.25 17.26-8.99 22.89-13.02 3.35-2.46 12.65-9.4 12.76-9.47 1.88-1.3 2.94-2.75 2.5-3.68-.06-.1-22.19-14.12-26.6-17.22-5.49-3.88-17.36-13.55-23.94-19.42-10.97-10.3-36.55-37.56-41.43-43.64-4.1-5.55-9.32-12.52-9.26-12.7.42-.95 5.31-.77 12.56-.74 12.84-.07 23.87-.86 23.79-2.09-.02-.19-19.39-10-25.52-14.16-3.5-2.39-17.24-13.46-16.87-14.23.35-.67 2.33-.34 2.97.29"/>
        <path id="etusofnMH4z161" fill="none" stroke-width="6"
              d="M19066.34 454.35c-1.8 6.84-6.22 23.25-9.14 29.92-1.55 3.49-4.93 9.91-6.67 12.55-1.84 2.78-6.31 8.04-8.88 10.3-2.65 2.3-8.49 6.24-11.74 7.94-3.16 1.62-10 4.26-13.68 5.16-6.72 1.61-24.15 2.95-31.88 2.84-10.63-.29-38.8-2.37-47.54-3.18"/>
        <path id="etusofnMH4z162" fill="none" stroke-width="6"
              d="M19065.15 454.94c-3.51 9.78-7.81 20.38-10.84 26.27-3.43 6.62-13.82 20.71-18.94 25.69-2.84 2.73-9.07 7.25-12.3 9.04-6.56 3.61-19.74 7.96-27.11 9.26-7.26 1.26-19.82 1.99-31.84 2.04-22.66-.4-32.27-2.36-33.47-2.59"/>
        <path id="etusofnMH4z163" fill="#000" stroke-width="3"
              d="M11255.25 511.06c6.55 1.22 24.56 4.39 29.62 5.02 5.11.62 21.19 1.65 26.28.92 3.61-.54 20.78-3.68 26.51-5.4 3.45-1.06 41.88-15.45 56.62-20.93 4.66-1.64 20.24-5.83 27.44-7.72 10.83-2.64 22.8-5.08 30.29-6 8.47-.96 20.94-1.53 30.27-1.4 5.8.12 22.63 1.73 28.05 2.49 7.62 1.19 22.64 3.96 29.72 5.33 8.9 1.62 23.18 2.42 25.5 1.2 2.23-1.23 8.66-7.69 10.47-9.78 2.89-3.37 7.38-10.2 9.57-14.34 1.76-3.36 5.83-12.42 5.91-12.95.16-1.23-1.02-3.07-2-3-1.19.14-36.19 18.09-43.57 21.82-4.18 2.05-9.18 4.61-10.43 4.18-1.12-.42-2.98-3.61-3-5 .06-1.71 5.42-6.76 9.25-9.81 13.22-10.32 36.44-27.86 36.62-28.06.94-1.12 1.19-3.92.75-6.01-.87-3.86-2.92-12.18-3.26-14.42-.2-1.45-.51-8.95-.26-10.8.46-3.16 3.58-10.25 4.95-12.64 3.32-5.69 15.65-19.71 21.46-25.1 3.34-3.05 8.26-6.1 12.33-7.47 3.85-1.23 17.34-2.87 23.13-2.6 3.75.19 10.35.79 13.88 1.33 3.94.63 9.64 2.38 14.53 4.45 5.36 2.35 7.96 4.06 10.3 7.31 5.25 7.45 10.41 17.86 11.39 20.51 1.85 5.11 3.23 8.55 2.93 9.31-.1.26-2.07 3.28-2 4 .2 1.71 7.11 6.39 10.04 7.81 5.68 2.7 48.25 12.31 48.96 13.19.46.59.49 1.46 1 2 1.55 1.67 19.74 3.59 23.5 4.66 1.57.48 4.14 2.08 5.04 3.22 1.46 1.95 2.95 8.65 2.36 11.81-.33 1.58-1.69 5.14-2.42 6.14-1.56 2.04-7.07 4.23-9.74 4.2-3-.08-8.05-1.98-10.32-3.97-1.05-.98-2.59-3.25-2.96-4.54-.31-1.19-.64-5.68-.46-6.52.15-.7.98-2.84.31-3.28-.27-.15-9.71-2.02-11.6-2.04-2.41-.01-7.75 2.45-10.71 3.32-2.74.8-18.66 4.12-29.26 6.8-3.84 1.01-11.11 3.26-14.43 4.65-3.78 1.61-9.43 5.01-12.31 7.55-4.46 4.01-13.65 16.99-17.82 24.95-2.11 4.06-9.75 20.39-11.24 25.72-3.95 13.84-11.74 40.57-16.7 55.52-2.62 7.41-8.17 22.61-10.72 27.84-2.86 5.79-11.22 18.93-16.28 25-5.53 6.59-16.79 16.29-19.56 19.52-1.03 1.21-3.63 4.66-4.32 5.53-1.32 1.67-1.47 2.94-.36 2.92.34-.02 8.21-4.2 10.89-5.17 3.71-1.25 8.94-3.61 9.32-3.75 3.76-1.32 22.43-4.26 28.13-4.16 2.53.06 10.27 1.15 12.52 1.73 2.28.62 6.95 3.47 11.01 6.47 4.04 3 9.07 7.54 11.57 10.6 1.2 1.52 2.1 3.5 2.13 4.7-.03.94-1.06 2.1-2.02 2.33-1.48.29-17.79.22-24.5.84-13.02 1.31-45.27 6.82-59.75 10.22-17.45 4.46-35.5 10.71-36.81 10.41-.69-.18-1.85-1.74-2.46-3-.75-1.74-.8-3.99-.03-6.22.88-2.42 7.96-13 7.99-13.47 0-.62-.51-.79-1.52-.5-1.56.47-5.15 2.25-7.33 2.77-5.33 1.38-27.72 6.36-31.51 7.05-4.26.76-19.9 1.29-26.17 1.44-7.87.09-23.67-.24-31.82-.89-6.44-.61-25.9-3.37-30.05-4.31-1.93-.43-8.7-2.54-11.59-3.09-3.57-.65-11.52-1.14-14-1-1.78.11-7.38 1.2-10.7.78-5.95-.81-17.4-3.96-23.97-4.51-3.33-.27-9.83-.56-13.33.73-2.56.98-19.22 10.93-25.27 13.86-6.73 3.14-21.96 9.73-26.73 11.14-4.57 1.33-22.87 3.97-24 4-2.3.05-7.97-.82-10.45-2.08-1.62-.88-3.37-2.78-4.55-4.92-1.05-1.97-3.48-10.04-4.36-14.3-.84-4.19-.87-14.2-.86-15.31.07-2.05.89-3.74 2.22-4.39 1.26-.56 16.04 1.22 25.16 1.18 9.36-.17 22.67-1.52 29.88-3.12 6.48-1.53 23.49-5.44 26.96-6.06 2.56-.43 18.32 1.49 18.33 1.41-.03-.76-7.94-4.75-11.1-6.69-4.97-3.05-20.8-15.06-26.23-19.72-8.26-7.12-34.72-34.45-41.89-42.55-5.19-5.95-14.14-18.33-14.11-18.45.43-1.11 5.1-.94 12.65-.9 12.68-.05 24.41-1.38 24.09-2.63-.19-.53-20.05-9.66-26.32-13.64-4.1-2.62-17.93-14.5-17.06-15.08.09-.05 2.86 1.25 4.27 1.84"/>
    </g>
    <script>
        <![CDATA[!function(t,n){"object"==typeof exports&&"undefined"!=typeof module?module.exports=n():"function"==typeof define&&define.amd?define(n):(t="undefined"!=typeof globalThis?globalThis:t||self).__SVGATOR_PLAYER__=n()}(this,(function(){"use strict";function t(n){return(t="function"==typeof Symbol&&"symbol"==typeof Symbol.iterator?function(t){return typeof t}:function(t){return t&&"function"==typeof Symbol&&t.constructor===Symbol&&t!==Symbol.prototype?"symbol":typeof t})(n)}function n(t,n){if(!(t instanceof n))throw new TypeError("Cannot call a class as a function")}function r(t,n){for(var r=0;r<n.length;r++){var e=n[r];e.enumerable=e.enumerable||!1,e.configurable=!0,"value"in e&&(e.writable=!0),Object.defineProperty(t,e.key,e)}}function e(t,n,e){return n&&r(t.prototype,n),e&&r(t,e),t}function i(t){return(i=Object.setPrototypeOf?Object.getPrototypeOf:function(t){return t.__proto__||Object.getPrototypeOf(t)})(t)}function o(t,n){return(o=Object.setPrototypeOf||function(t,n){return t.__proto__=n,t})(t,n)}function u(t,n){return!n||"object"!=typeof n&&"function"!=typeof n?function(t){if(void 0===t)throw new ReferenceError("this hasn't been initialised - super() hasn't been called");return t}(t):n}function a(t){var n=function(){if("undefined"==typeof Reflect||!Reflect.construct)return!1;if(Reflect.construct.sham)return!1;if("function"==typeof Proxy)return!0;try{return Boolean.prototype.valueOf.call(Reflect.construct(Boolean,[],(function(){}))),!0}catch(t){return!1}}();return function(){var r,e=i(t);if(n){var o=i(this).constructor;r=Reflect.construct(e,arguments,o)}else r=e.apply(this,arguments);return u(this,r)}}function l(t,n,r){return(l="undefined"!=typeof Reflect&&Reflect.get?Reflect.get:function(t,n,r){var e=function(t,n){for(;!Object.prototype.hasOwnProperty.call(t,n)&&null!==(t=i(t)););return t}(t,n);if(e){var o=Object.getOwnPropertyDescriptor(e,n);return o.get?o.get.call(r):o.value}})(t,n,r||t)}var f=Math.abs;function s(t){return t}function c(t,n,r){var e=1-r;return 3*r*e*(t*e+n*r)+r*r*r}function h(){var t=arguments.length>0&&void 0!==arguments[0]?arguments[0]:0,n=arguments.length>1&&void 0!==arguments[1]?arguments[1]:0,r=arguments.length>2&&void 0!==arguments[2]?arguments[2]:1,e=arguments.length>3&&void 0!==arguments[3]?arguments[3]:1;return t<0||t>1||r<0||r>1?null:f(t-n)<=1e-5&&f(r-e)<=1e-5?s:function(i){if(i<=0)return t>0?i*n/t:0===n&&r>0?i*e/r:0;if(i>=1)return r<1?1+(i-1)*(e-1)/(r-1):1===r&&t<1?1+(i-1)*(n-1)/(t-1):1;for(var o,u=0,a=1;u<a;){var l=c(t,r,o=(u+a)/2);if(f(i-l)<1e-5)break;l<i?u=o:a=o}return c(n,e,o)}}function v(){return 1}function y(t){return 1===t?1:0}function d(){var t=arguments.length>0&&void 0!==arguments[0]?arguments[0]:1,n=arguments.length>1&&void 0!==arguments[1]?arguments[1]:0;if(1===t){if(0===n)return y;if(1===n)return v}var r=1/t;return function(t){return t>=1?1:(t+=n*r)-t%r}}function g(t){var n=arguments.length>1&&void 0!==arguments[1]?arguments[1]:2;if(Number.isInteger(t))return t;var r=Math.pow(10,n);return Math.round(t*r)/r}var p=Math.PI/180;function m(t,n,r){return t>=.5?r:n}function b(t,n,r){return 0===t||n===r?n:t*(r-n)+n}function w(t,n,r){var e=b(t,n,r);return e<=0?0:e}function x(t,n,r){return 0===t?n:1===t?r:{x:b(t,n.x,r.x),y:b(t,n.y,r.y)}}function k(t,n,r){var e=function(t,n,r){return Math.round(b(t,n,r))}(t,n,r);return e<=0?0:e>=255?255:e}function A(t,n,r){return 0===t?n:1===t?r:{r:k(t,n.r,r.r),g:k(t,n.g,r.g),b:k(t,n.b,r.b),a:b(t,null==n.a?1:n.a,null==r.a?1:r.a)}}function _(t,n,r){if(0===t)return n;if(1===t)return r;var e=n.length;if(e!==r.length)return m(t,n,r);for(var i=[],o=0;o<e;o++)i.push(A(t,n[o],r[o]));return i}function S(t,n){for(var r=[],e=0;e<t;e++)r.push(n);return r}function O(t,n){if(--n<=0)return t;var r=(t=Object.assign([],t)).length;do{for(var e=0;e<r;e++)t.push(t[e])}while(--n>0);return t}var M,j=function(){function t(r){n(this,t),this.list=r,this.length=r.length}return e(t,[{key:"setAttribute",value:function(t,n){for(var r=this.list,e=0;e<this.length;e++)r[e].setAttribute(t,n)}},{key:"removeAttribute",value:function(t){for(var n=this.list,r=0;r<this.length;r++)n[r].removeAttribute(t)}},{key:"style",value:function(t,n){for(var r=this.list,e=0;e<this.length;e++)r[e].style[t]=n}}]),t}(),F=/-./g,P=function(t,n){return n.toUpperCase()};function B(t){return"function"==typeof t?t:m}function I(t){return t?"function"==typeof t?t:Array.isArray(t)?function(t){var n=arguments.length>1&&void 0!==arguments[1]?arguments[1]:s;if(!Array.isArray(t))return n;switch(t.length){case 1:return d(t[0])||n;case 2:return d(t[0],t[1])||n;case 4:return h(t[0],t[1],t[2],t[3])||n}return n}(t,null):function(t,n){var r=arguments.length>2&&void 0!==arguments[2]?arguments[2]:s;switch(t){case"linear":return s;case"steps":return d(n.steps||1,n.jump||0)||r;case"bezier":case"cubic-bezier":return h(n.x1||0,n.y1||0,n.x2||0,n.y2||0)||r}return r}(t.type,t.value,null):null}function R(t,n,r){var e=arguments.length>3&&void 0!==arguments[3]&&arguments[3],i=n.length-1;if(t<=n[0].t)return e?[0,0,n[0].v]:n[0].v;if(t>=n[i].t)return e?[i,1,n[i].v]:n[i].v;var o,u=n[0],a=null;for(o=1;o<=i;o++){if(!(t>n[o].t)){a=n[o];break}u=n[o]}return null==a?e?[i,1,n[i].v]:n[i].v:u.t===a.t?e?[o,1,a.v]:a.v:(t=(t-u.t)/(a.t-u.t),u.e&&(t=u.e(t)),e?[o,t,r(t,u.v,a.v)]:r(t,u.v,a.v))}function q(t,n){var r=arguments.length>2&&void 0!==arguments[2]?arguments[2]:null;return t&&t.length?"function"!=typeof n?null:("function"!=typeof r&&(r=null),function(e){var i=R(e,t,n);return null!=i&&r&&(i=r(i)),i}):null}function E(t,n){return t.t-n.t}function T(n,r,e,i,o){var u,a="@"===e[0],l="#"===e[0],f=M[e],s=m;switch(a?(u=e.substr(1),e=u.replace(F,P)):l&&(e=e.substr(1)),t(f)){case"function":if(s=f(i,o,R,I,e,a,r,n),l)return s;break;case"string":s=q(i,B(f));break;case"object":if((s=q(i,B(f.i),f.f))&&"function"==typeof f.u)return f.u(r,s,e,a,n)}return s?function(t,n,r){var e=arguments.length>3&&void 0!==arguments[3]&&arguments[3];if(e)return t instanceof j?function(e){return t.style(n,r(e))}:function(e){return t.style[n]=r(e)};if(Array.isArray(n)){var i=n.length;return function(e){var o=r(e);if(null==o)for(var u=0;u<i;u++)t[u].removeAttribute(n);else for(var a=0;a<i;a++)t[a].setAttribute(n,o)}}return function(e){var i=r(e);null==i?t.removeAttribute(n):t.setAttribute(n,i)}}(r,e,s,a):null}function N(n,r,e,i){if(!i||"object"!==t(i))return null;var o=null,u=null;return Array.isArray(i)?u=function(t){if(!t||!t.length)return null;for(var n=0;n<t.length;n++)t[n].e&&(t[n].e=I(t[n].e));return t.sort(E)}(i):(u=i.keys,o=i.data||null),u?T(n,r,e,u,o):null}function C(t,n,r){if(!r)return null;var e=[];for(var i in r)if(r.hasOwnProperty(i)){var o=N(t,n,i,r[i]);o&&e.push(o)}return e.length?e:null}function z(t,n){if(!n.duration||n.duration<0)return null;var r=function(t,n){if(!n)return null;var r=[];if(Array.isArray(n))for(var e=n.length,i=0;i<e;i++){var o=n[i];if(2===o.length){var u=null;if("string"==typeof o[0])u=t.getElementById(o[0]);else if(Array.isArray(o[0])){u=[];for(var a=0;a<o[0].length;a++)if("string"==typeof o[0][a]){var l=t.getElementById(o[0][a]);l&&u.push(l)}u=u.length?1===u.length?u[0]:new j(u):null}if(u){var f=C(t,u,o[1]);f&&(r=r.concat(f))}}}else for(var s in n)if(n.hasOwnProperty(s)){var c=t.getElementById(s);if(c){var h=C(t,c,n[s]);h&&(r=r.concat(h))}}return r.length?r:null}(t,n.elements);return r?function(t,n){var r=arguments.length>2&&void 0!==arguments[2]?arguments[2]:1/0,e=arguments.length>3&&void 0!==arguments[3]?arguments[3]:1,i=arguments.length>4&&void 0!==arguments[4]&&arguments[4],o=arguments.length>5&&void 0!==arguments[5]?arguments[5]:1,u=t.length,a=e>0?n:0;i&&r%2==0&&(a=n-a);var l=null;return function(f,s){var c=f%n,h=1+(f-c)/n;s*=e,i&&h%2==0&&(s=-s);var v=!1;if(h>r)c=a,v=!0,-1===o&&(c=e>0?0:n);else if(s<0&&(c=n-c),c===l)return!1;l=c;for(var y=0;y<u;y++)t[y](c);return v}}(r,n.duration,n.iterations||1/0,n.direction||1,!!n.alternate,n.fill||1):null}var L=function(){function t(r,e){var i=arguments.length>2&&void 0!==arguments[2]?arguments[2]:{};n(this,t),this._id=0,this._running=!1,this._rollingBack=!1,this._animations=r,this.duration=e.duration,this.alternate=e.alternate,this.fill=e.fill,this.iterations=e.iterations,this.direction=i.direction||1,this.speed=i.speed||1,this.fps=i.fps||100,this.offset=i.offset||0,this.rollbackStartOffset=0}return e(t,[{key:"_rollback",value:function(){var t=this,n=1/0,r=null;this.rollbackStartOffset=this.offset,this._rollingBack||(this._rollingBack=!0,this._running=!0);this._id=window.requestAnimationFrame((function e(i){if(t._rollingBack){null==r&&(r=i);var o=i-r,u=t.rollbackStartOffset-o,a=Math.round(u*t.speed);if(a>t.duration&&n!=1/0){var l=!!t.alternate&&a/t.duration%2>1,f=a%t.duration;a=(f+=l?t.duration:0)||t.duration}var s=t.fps?1e3/t.fps:0,c=Math.max(0,a);if(c<n-s){t.offset=c,n=c;for(var h=t._animations,v=h.length,y=0;y<v;y++)h[y](c,t.direction)}var d=!1;if(t.iterations>0&&-1===t.fill){var g=t.iterations*t.duration,p=g==a;a=p?0:a,t.offset=p?0:t.offset,d=a>g}a>0&&t.offset>=a&&!d?t._id=window.requestAnimationFrame(e):t.stop()}}))}},{key:"_start",value:function(){var t=this,n=arguments.length>0&&void 0!==arguments[0]?arguments[0]:0,r=-1/0,e=null,i={},o=function o(u){t._running=!0,null==e&&(e=u);var a=Math.round((u-e+n)*t.speed),l=t.fps?1e3/t.fps:0;if(a>r+l&&!t._rollingBack){t.offset=a,r=a;for(var f=t._animations,s=f.length,c=0,h=0;h<s;h++)i[h]?c++:(i[h]=f[h](a,t.direction),i[h]&&c++);if(c===s)return void t._stop()}t._id=window.requestAnimationFrame(o)};this._id=window.requestAnimationFrame(o)}},{key:"_stop",value:function(){this._id&&window.cancelAnimationFrame(this._id),this._running=!1,this._rollingBack=!1}},{key:"play",value:function(){!this._rollingBack&&this._running||(this._rollingBack=!1,this.rollbackStartOffset>this.duration&&(this.offset=this.rollbackStartOffset-(this.rollbackStartOffset-this.offset)%this.duration,this.rollbackStartOffset=0),this._start(this.offset))}},{key:"stop",value:function(){this._stop(),this.offset=0,this.rollbackStartOffset=0;var t=this.direction,n=this._animations;window.requestAnimationFrame((function(){for(var r=0;r<n.length;r++)n[r](0,t)}))}},{key:"reachedToEnd",value:function(){return this.iterations>0&&this.offset>=this.iterations*this.duration}},{key:"restart",value:function(){this._stop(),this.offset=0,this._start()}},{key:"pause",value:function(){this._stop()}},{key:"reverse",value:function(){this.direction=-this.direction}}],[{key:"build",value:function(n,r){return(n=function(t,n){if(M=n,!t||!t.root||!Array.isArray(t.animations))return null;for(var r=document.getElementsByTagName("svg"),e=!1,i=0;i<r.length;i++)if(r[i].id===t.root&&!r[i].svgatorAnimation){(e=r[i]).svgatorAnimation=!0;break}if(!e)return null;var o=t.animations.map((function(t){return z(e,t)})).filter((function(t){return!!t}));return o.length?{element:e,animations:o,animationSettings:t.animationSettings,options:t.options||void 0}:null}(n,r))?{el:n.element,options:n.options||{},player:new t(n.animations,n.animationSettings,n.options)}:null}}]),t}();!function(){for(var t=0,n=["ms","moz","webkit","o"],r=0;r<n.length&&!window.requestAnimationFrame;++r)window.requestAnimationFrame=window[n[r]+"RequestAnimationFrame"],window.cancelAnimationFrame=window[n[r]+"CancelAnimationFrame"]||window[n[r]+"CancelRequestAnimationFrame"];window.requestAnimationFrame||(window.requestAnimationFrame=function(n){var r=Date.now(),e=Math.max(0,16-(r-t)),i=window.setTimeout((function(){n(r+e)}),e);return t=r+e,i},window.cancelAnimationFrame=window.clearTimeout)}();var D=/\.0+$/g;function Q(t){return Number.isInteger(t)?t+"":t.toFixed(6).replace(D,"")}function U(t){var n=arguments.length>1&&void 0!==arguments[1]?arguments[1]:" ";return t&&t.length?t.map(Q).join(n):""}function V(t){return t?null==t.a||t.a>=1?"rgb("+t.r+","+t.g+","+t.b+")":"rgba("+t.r+","+t.g+","+t.b+","+t.a+")":"transparent"}var $={f:null,i:function(t,n,r){return 0===t?n:1===t?r:{x:w(t,n.x,r.x),y:w(t,n.y,r.y)}},u:function(t,n){return function(r){var e=n(r);t.setAttribute("rx",Q(e.x)),t.setAttribute("ry",Q(e.y))}}},G={f:null,i:function(t,n,r){return 0===t?n:1===t?r:{width:w(t,n.width,r.width),height:w(t,n.height,r.height)}},u:function(t,n){return function(r){var e=n(r);t.setAttribute("width",Q(e.width)),t.setAttribute("height",Q(e.height))}}},H=Math.sin,Y=Math.cos,Z=Math.acos,J=Math.asin,K=Math.tan,W=Math.atan2,X=Math.PI/180,tt=180/Math.PI,nt=Math.sqrt,rt=function(){function t(){var r=arguments.length>0&&void 0!==arguments[0]?arguments[0]:1,e=arguments.length>1&&void 0!==arguments[1]?arguments[1]:0,i=arguments.length>2&&void 0!==arguments[2]?arguments[2]:0,o=arguments.length>3&&void 0!==arguments[3]?arguments[3]:1,u=arguments.length>4&&void 0!==arguments[4]?arguments[4]:0,a=arguments.length>5&&void 0!==arguments[5]?arguments[5]:0;n(this,t),this.m=[r,e,i,o,u,a],this.i=null,this.w=null,this.s=null}return e(t,[{key:"determinant",get:function(){var t=this.m;return t[0]*t[3]-t[1]*t[2]}},{key:"isIdentity",get:function(){if(null===this.i){var t=this.m;this.i=1===t[0]&&0===t[1]&&0===t[2]&&1===t[3]&&0===t[4]&&0===t[5]}return this.i}},{key:"point",value:function(t,n){var r=this.m;return{x:r[0]*t+r[2]*n+r[4],y:r[1]*t+r[3]*n+r[5]}}},{key:"translateSelf",value:function(){var t=arguments.length>0&&void 0!==arguments[0]?arguments[0]:0,n=arguments.length>1&&void 0!==arguments[1]?arguments[1]:0;if(!t&&!n)return this;var r=this.m;return r[4]+=r[0]*t+r[2]*n,r[5]+=r[1]*t+r[3]*n,this.w=this.s=this.i=null,this}},{key:"rotateSelf",value:function(){var t=arguments.length>0&&void 0!==arguments[0]?arguments[0]:0;if(t%=360){var n=H(t*=X),r=Y(t),e=this.m,i=e[0],o=e[1];e[0]=i*r+e[2]*n,e[1]=o*r+e[3]*n,e[2]=e[2]*r-i*n,e[3]=e[3]*r-o*n,this.w=this.s=this.i=null}return this}},{key:"scaleSelf",value:function(){var t=arguments.length>0&&void 0!==arguments[0]?arguments[0]:1,n=arguments.length>1&&void 0!==arguments[1]?arguments[1]:1;if(1!==t||1!==n){var r=this.m;r[0]*=t,r[1]*=t,r[2]*=n,r[3]*=n,this.w=this.s=this.i=null}return this}},{key:"skewSelf",value:function(t,n){if(n%=360,(t%=360)||n){var r=this.m,e=r[0],i=r[1],o=r[2],u=r[3];t&&(t=K(t*X),r[2]+=e*t,r[3]+=i*t),n&&(n=K(n*X),r[0]+=o*n,r[1]+=u*n),this.w=this.s=this.i=null}return this}},{key:"resetSelf",value:function(){var t=arguments.length>0&&void 0!==arguments[0]?arguments[0]:1,n=arguments.length>1&&void 0!==arguments[1]?arguments[1]:0,r=arguments.length>2&&void 0!==arguments[2]?arguments[2]:0,e=arguments.length>3&&void 0!==arguments[3]?arguments[3]:1,i=arguments.length>4&&void 0!==arguments[4]?arguments[4]:0,o=arguments.length>5&&void 0!==arguments[5]?arguments[5]:0,u=this.m;return u[0]=t,u[1]=n,u[2]=r,u[3]=e,u[4]=i,u[5]=o,this.w=this.s=this.i=null,this}},{key:"recomposeSelf",value:function(){var t=arguments.length>0&&void 0!==arguments[0]?arguments[0]:null,n=arguments.length>1&&void 0!==arguments[1]?arguments[1]:null,r=arguments.length>2&&void 0!==arguments[2]?arguments[2]:null,e=arguments.length>3&&void 0!==arguments[3]?arguments[3]:null,i=arguments.length>4&&void 0!==arguments[4]?arguments[4]:null;return this.isIdentity||this.resetSelf(),t&&(t.x||t.y)&&this.translateSelf(t.x,t.y),n&&this.rotateSelf(n),r&&(r.x&&this.skewSelf(r.x,0),r.y&&this.skewSelf(0,r.y)),!e||1===e.x&&1===e.y||this.scaleSelf(e.x,e.y),i&&(i.x||i.y)&&this.translateSelf(i.x,i.y),this}},{key:"decompose",value:function(){var t=arguments.length>0&&void 0!==arguments[0]?arguments[0]:0,n=arguments.length>1&&void 0!==arguments[1]?arguments[1]:0,r=this.m,e=r[0]*r[0]+r[1]*r[1],i=[[r[0],r[1]],[r[2],r[3]]],o=nt(e);if(0===o)return{origin:{x:r[4],y:r[5]},translate:{x:t,y:n},scale:{x:0,y:0},skew:{x:0,y:0},rotate:0};i[0][0]/=o,i[0][1]/=o;var u=r[0]*r[3]-r[1]*r[2]<0;u&&(o=-o);var a=i[0][0]*i[1][0]+i[0][1]*i[1][1];i[1][0]-=i[0][0]*a,i[1][1]-=i[0][1]*a;var l=nt(i[1][0]*i[1][0]+i[1][1]*i[1][1]);if(0===l)return{origin:{x:r[4],y:r[5]},translate:{x:t,y:n},scale:{x:o,y:0},skew:{x:0,y:0},rotate:0};i[1][0]/=l,i[1][1]/=l,a/=l;var f=0;return i[1][1]<0?(f=Z(i[1][1])*tt,i[0][1]<0&&(f=360-f)):f=J(i[0][1])*tt,u&&(f=-f),a=W(a,nt(i[0][0]*i[0][0]+i[0][1]*i[0][1]))*tt,u&&(a=-a),{origin:{x:r[4],y:r[5]},translate:{x:t,y:n},scale:{x:o,y:l},skew:{x:a,y:0},rotate:f}}},{key:"toString",value:function(){return null===this.s&&(this.s="matrix("+this.m.map(it).join(" ")+")"),this.s}}]),t}(),et=/\.0+$/;function it(t){return Number.isInteger(t)?t:t.toFixed(14).replace(et,"")}Object.freeze({M:2,L:2,Z:0,H:1,V:1,C:6,Q:4,T:2,S:4,A:7});var ot={},ut=null;function at(n){var r=function(){if(ut)return ut;if("object"!==("undefined"==typeof document?"undefined":t(document)))return{};var n=document.createElementNS("http://www.w3.org/2000/svg","svg");return n.style.position="absolute",n.style.opacity="0.01",n.style.zIndex="-9999",n.style.left="-9999px",n.style.width="1px",n.style.height="1px",ut={svg:n}}().svg;if(!r)return function(t){return null};var e=document.createElementNS(r.namespaceURI,"path");e.setAttributeNS(null,"d",n),e.setAttributeNS(null,"fill","none"),e.setAttributeNS(null,"stroke","none"),r.appendChild(e);var i=e.getTotalLength();return function(t){var n=e.getPointAtLength(i*t);return{x:n.x,y:n.y}}}function lt(t){return ot[t]?ot[t]:ot[t]=at(t)}function ft(t,n,r,e){if(!t||!e)return!1;var i=["M",t.x,t.y];if(n&&r&&(i.push("C"),i.push(n.x),i.push(n.y),i.push(r.x),i.push(r.y)),n?!r:r){var o=n||r;i.push("Q"),i.push(o.x),i.push(o.y)}return n||r||i.push("L"),i.push(e.x),i.push(e.y),i.join(" ")}function st(t,n,r,e){var i=arguments.length>4&&void 0!==arguments[4]?arguments[4]:1,o=ft(t,n,r,e),u=lt(o);try{return u(i)}catch(t){return null}}function ct(t,n,r,e){var i=1-e;return i*i*t+2*i*e*n+e*e*r}function ht(t,n,r,e){return 2*(1-e)*(n-t)+2*e*(r-n)}function vt(t,n,r,e){var i=arguments.length>4&&void 0!==arguments[4]&&arguments[4],o=st(t,n,null,r,e);return o||(o={x:ct(t.x,n.x,r.x,e),y:ct(t.y,n.y,r.y,e)}),i&&(o.a=yt(t,n,r,e)),o}function yt(t,n,r,e){return Math.atan2(ht(t.y,n.y,r.y,e),ht(t.x,n.x,r.x,e))}function dt(t,n,r,e,i){var o=i*i;return i*o*(e-t+3*(n-r))+3*o*(t+r-2*n)+3*i*(n-t)+t}function gt(t,n,r,e,i){var o=1-i;return 3*(o*o*(n-t)+2*o*i*(r-n)+i*i*(e-r))}function pt(t,n,r,e,i){var o=arguments.length>5&&void 0!==arguments[5]&&arguments[5],u=st(t,n,r,e,i);return u||(u={x:dt(t.x,n.x,r.x,e.x,i),y:dt(t.y,n.y,r.y,e.y,i)}),o&&(u.a=mt(t,n,r,e,i)),u}function mt(t,n,r,e,i){return Math.atan2(gt(t.y,n.y,r.y,e.y,i),gt(t.x,n.x,r.x,e.x,i))}function bt(t,n,r){return t+(n-t)*r}function wt(t,n,r){var e=arguments.length>3&&void 0!==arguments[3]&&arguments[3],i={x:bt(t.x,n.x,r),y:bt(t.y,n.y,r)};return e&&(i.a=xt(t,n)),i}function xt(t,n){return Math.atan2(n.y-t.y,n.x-t.x)}function kt(t,n,r){var e=arguments.length>3&&void 0!==arguments[3]&&arguments[3];if(_t(n)){if(St(r))return vt(n,r.start,r,t,e)}else if(_t(r)){if(n.end)return vt(n,n.end,r,t,e)}else{if(n.end)return r.start?pt(n,n.end,r.start,r,t,e):vt(n,n.end,r,t,e);if(r.start)return vt(n,r.start,r,t,e)}return wt(n,r,t,e)}function At(t,n,r){var e=kt(t,n,r,!0);return e.a=function(t){var n=arguments.length>1&&void 0!==arguments[1]&&arguments[1];return n?t+Math.PI:t}(e.a)/p,e}function _t(t){return!t.type||"corner"===t.type}function St(t){return null!=t.start&&!_t(t)}var Ot=new rt;var Mt={f:Q,i:b},jt={f:Q,i:function(t,n,r){var e=b(t,n,r);return e<=0?0:e>=1?1:e}};function Ft(t,n,r,e,i,o,u,a){return n=function(t,n,r){for(var e,i,o,u=t.length-1,a={},l=0;l<=u;l++)(e=t[l]).e&&(e.e=n(e.e)),e.v&&"g"===(i=e.v).t&&i.r&&(o=r.getElementById(i.r))&&(a[i.r]=o.querySelectorAll("stop"));return a}(t,e,a),function(e){var i,o=r(e,t,Pt);return o?"c"===o.t?V(o.v):"g"===o.t?(n[o.r]&&function(t,n){for(var r=0,e=t.length;r<e;r++)t[r].setAttribute("stop-color",V(n[r]))}(n[o.r],o.v),(i=o.r)?"url(#"+i+")":"none"):"none":"none"}}function Pt(t,n,r){if(0===t)return n;if(1===t)return r;if(n&&r){var e=n.t;if(e===r.t)switch(n.t){case"c":return{t:e,v:A(t,n.v,r.v)};case"g":if(n.r===r.r)return{t:e,v:_(t,n.v,r.v),r:n.r}}}return m(t,n,r)}var Bt={fill:Ft,"fill-opacity":jt,stroke:Ft,"stroke-opacity":jt,"stroke-width":Mt,"stroke-dashoffset":{f:Q,i:b},"stroke-dasharray":{f:function(t){var n=arguments.length>1&&void 0!==arguments[1]?arguments[1]:" ";return t&&t.length>0&&(t=t.map((function(t){return Math.floor(1e4*t)/1e4}))),U(t,n)},i:function(t,n,r){var e,i,o,u=n.length,a=r.length;if(u!==a)if(0===u)n=S(u=a,0);else if(0===a)a=u,r=S(u,0);else{var l=(o=(e=u)*(i=a)/function(t,n){for(var r;n;)r=n,n=t%n,t=r;return t||1}(e,i))<0?-o:o;n=O(n,Math.floor(l/u)),r=O(r,Math.floor(l/a)),u=a=l}for(var f=[],s=0;s<u;s++)f.push(g(w(t,n[s],r[s]),6));return f}},opacity:jt,transform:function(n,r,e,i){if(!(n=function(n,r){if(!n||"object"!==t(n))return null;var e=!1;for(var i in n)n.hasOwnProperty(i)&&(n[i]&&n[i].length?(n[i].forEach((function(t){t.e&&(t.e=r(t.e))})),e=!0):delete n[i]);return e?n:null}(n,i)))return null;var o=function(t,i,o){var u=arguments.length>3&&void 0!==arguments[3]?arguments[3]:null;return n[t]?e(i,n[t],o):r&&r[t]?r[t]:u};return r&&r.a&&n.o?function(t){var r=e(t,n.o,At);return Ot.recomposeSelf(r,o("r",t,b,0)+r.a,o("k",t,x),o("s",t,x),o("t",t,x)).toString()}:function(t){return Ot.recomposeSelf(o("o",t,kt,null),o("r",t,b,0),o("k",t,x),o("s",t,x),o("t",t,x)).toString()}},r:Mt,"#size":G,"#radius":$,_:function(t,n){if(Array.isArray(t))for(var r=0;r<t.length;r++)this[t[r]]=n;else this[t]=n}};return function(t){!function(t,n){if("function"!=typeof n&&null!==n)throw new TypeError("Super expression must either be null or a function");t.prototype=Object.create(n&&n.prototype,{constructor:{value:t,writable:!0,configurable:!0}}),n&&o(t,n)}(u,t);var r=a(u);function u(){return n(this,u),r.apply(this,arguments)}return e(u,null,[{key:"build",value:function(t){var n=l(i(u),"build",this).call(this,t,Bt);n.el,n.options;var r=n.player;return function(t,n,r){t.play()}(r),r}}]),u}(L)}));
__SVGATOR_PLAYER__.build({"root":"etusofnMH4z1","animations":[{"duration":800,"direction":1,"iterations":0,"fill":1,"alternate":false,"speed":1,"elements":{"etusofnMH4z2":{"transform":{"data":{"t":{"x":-4233,"y":-525}},"keys":{"o":[{"t":0,"v":{"x":4233,"y":525,"type":"corner"},"e":[1,0]},{"t":100,"v":{"x":1574,"y":525,"type":"corner"},"e":[1,0]},{"t":200,"v":{"x":-1507,"y":525,"type":"corner"},"e":[1,0]},{"t":300,"v":{"x":-4367,"y":525,"type":"corner"},"e":[1,0]},{"t":400,"v":{"x":-6785,"y":525,"type":"corner"},"e":[1,0]},{"t":500,"v":{"x":-9443,"y":525,"type":"corner"},"e":[1,0]},{"t":600,"v":{"x":-11823,"y":525,"type":"corner"},"e":[1,0]},{"t":700,"v":{"x":-14083,"y":525,"type":"corner"},"e":[1,0]},{"t":800,"v":{"x":4233,"y":525,"type":"corner"},"e":[1,0]}]}}}}}],"options":{"start":"load","hover":"freeze","click":"freeze","scroll":25,"font":"embed","exportedIds":"unique","svgFormat":"animated","title":"all"},"animationSettings":{"duration":800,"direction":1,"iterations":0,"fill":1,"alternate":false,"speed":1}})]]>
    </script>
</svg>
